<svg xmlns="http://www.w3.org/2000/svg" xmlns:xlink="http://www.w3.org/1999/xlink" viewBox="0 0 160 160"><defs><style>.cls-1{fill:none;}.cls-2{isolation:isolate;}.cls-3{fill:#903320;}.cls-4{fill:#fff;}.cls-5{fill:#6c6e6f;}.cls-6{fill:url(#linear-gradient);}.cls-20,.cls-7{mix-blend-mode:multiply;}.cls-7{fill:url(#linear-gradient-2);}.cls-8{clip-path:url(#clip-path);}.cls-9{fill:url(#linear-gradient-3);}.cls-10{fill:#30292a;}.cls-11{fill:#525354;}.cls-12{fill:url(#linear-gradient-4);}.cls-13{fill:#982f16;}.cls-14{fill:url(#linear-gradient-5);}.cls-15{fill:url(#linear-gradient-6);}.cls-16{fill:#808083;}.cls-17{fill:url(#linear-gradient-7);}.cls-18{clip-path:url(#clip-path-2);}.cls-19{fill:url(#linear-gradient-8);}.cls-20{opacity:0.9;}.cls-21{fill:url(#linear-gradient-9);}.cls-22{fill:url(#linear-gradient-10);}.cls-23{fill:url(#linear-gradient-11);}.cls-24{fill:url(#linear-gradient-12);}.cls-25{fill:url(#linear-gradient-13);}.cls-26{fill:url(#linear-gradient-14);}.cls-27{fill:url(#linear-gradient-15);}.cls-28{fill:url(#linear-gradient-16);}.cls-29{fill:url(#linear-gradient-17);}.cls-30{fill:url(#linear-gradient-18);}.cls-31{fill:url(#linear-gradient-19);}.cls-32{fill:url(#linear-gradient-20);}.cls-33{opacity:0.4;fill:url(#linear-gradient-21);}.cls-34{fill:#849a3d;}</style><linearGradient id="linear-gradient" x1="4953.66" y1="73.02" x2="4979.2" y2="61" gradientTransform="translate(-4913.15)" gradientUnits="userSpaceOnUse"><stop offset="0.29" stop-color="#919294"/><stop offset="0.46" stop-color="#a2a4a5"/><stop offset="0.61" stop-color="#b6b7b9"/><stop offset="0.92" stop-color="#f8f9fa"/></linearGradient><linearGradient id="linear-gradient-2" x1="4971.22" y1="52.71" x2="4965.42" y2="58.33" gradientTransform="translate(-4913.15)" gradientUnits="userSpaceOnUse"><stop offset="0.1" stop-color="#919294"/><stop offset="0.92" stop-color="#f8f9fa" stop-opacity="0"/></linearGradient><clipPath id="clip-path"><path class="cls-1" d="M66.63,54.36H62.55l.15-3.58L53,50.4,50,53.91a40.23,40.23,0,0,1-3.51,3.53,12.55,12.55,0,0,0-4.17,4.13c-8.11,13.89-2.94,25-2.94,25,12,.89,17.75-5.52,19.72-8.78a33.91,33.91,0,0,0,4.86-14.74,4.67,4.67,0,0,0-1.14-3,12.14,12.14,0,0,0,1,.83,9.3,9.3,0,0,1-1.13-2.13,13.81,13.81,0,0,0,1,1.23,3.92,3.92,0,0,1-.42-2.19,1.6,1.6,0,0,0,.55,1,6.73,6.73,0,0,1-.19-1.75,1.25,1.25,0,0,0,.26.59,5,5,0,0,1,0-1.53,1.55,1.55,0,0,0,.29.78,1.26,1.26,0,0,1,.12-1.12,1.09,1.09,0,0,0,.26.71,3.33,3.33,0,0,1,0-.9c.08-.16.37-.18,1.27.18a2,2,0,0,0-1-.52h0a3.55,3.55,0,0,1,1.06.11,1.26,1.26,0,0,0-.7-.29,4.92,4.92,0,0,1,1.59-.64C67,54.4,66.63,54.36,66.63,54.36Z"/></clipPath><linearGradient id="linear-gradient-3" x1="57.46" y1="58.08" x2="45.02" y2="76.63" gradientUnits="userSpaceOnUse"><stop offset="0" stop-color="#a3a5a6" stop-opacity="0.1"/><stop offset="0.34" stop-color="#c7c8cb"/><stop offset="1" stop-color="#f3f4f4" stop-opacity="0"/></linearGradient><linearGradient id="linear-gradient-4" x1="4971.39" y1="52.85" x2="4974.11" y2="52.85" gradientTransform="translate(-4913.15)" gradientUnits="userSpaceOnUse"><stop offset="0" stop-color="#767678"/><stop offset="0.94" stop-color="#a9aaae" stop-opacity="0"/></linearGradient><linearGradient id="linear-gradient-5" x1="4977.11" y1="53.13" x2="4983.28" y2="53.13" gradientTransform="translate(-4913.15)" gradientUnits="userSpaceOnUse"><stop offset="0" stop-color="#767678"/><stop offset="0.76" stop-color="#a9aaae" stop-opacity="0"/></linearGradient><linearGradient id="linear-gradient-6" x1="4566.87" y1="-594.92" x2="4571.83" y2="-594.92" gradientTransform="translate(-4539.38 159.93) rotate(6.08)" gradientUnits="userSpaceOnUse"><stop offset="0.16" stop-color="#a2a4a5"/><stop offset="0.83" stop-color="#e0e1eb"/></linearGradient><linearGradient id="linear-gradient-7" x1="4949.67" y1="74.91" x2="4966.03" y2="74.91" gradientTransform="translate(-4913.15)" gradientUnits="userSpaceOnUse"><stop offset="0.11" stop-color="#703d19"/><stop offset="1" stop-color="#982f16"/></linearGradient><clipPath id="clip-path-2"><path class="cls-1" d="M50.64,58.77a19.64,19.64,0,0,1-2.94-.48c-1-.29-2.39-.53-4.91,2.22s-4.07,5.87-6.16,13.65A5.92,5.92,0,0,0,37,77.7a23.93,23.93,0,0,0,.81,7.19,17.92,17.92,0,0,0,2,4.79s.49-.31.66-2.23.32-1.94.32-1.94.11.64.2,2.12a3.64,3.64,0,0,0,1.73,2.94c.11.07.3-1.25.3-1.25.32,2.28,2,2.16,2.09,2.38,0,0,3.88-10.07,4-11.32.27-3.26-1.44-4.38-.79-7.92a32.85,32.85,0,0,1,2.87-7.89c1.17-2,1.62-2.77,1.65-4.3S51.76,58.93,50.64,58.77Z"/></clipPath><linearGradient id="linear-gradient-8" x1="45.27" y1="69.57" x2="44.91" y2="59.14" gradientTransform="matrix(1, 0, 0, 1, 0, 0)" xlink:href="#linear-gradient-7"/><linearGradient id="linear-gradient-9" x1="7295.58" y1="-800.32" x2="7295.58" y2="-810.82" gradientTransform="matrix(0.6, 0.12, -0.19, 0.98, -4491.64, 23.62)" gradientUnits="userSpaceOnUse"><stop offset="0" stop-color="#982f16" stop-opacity="0.4"/><stop offset="1" stop-color="#aa442a" stop-opacity="0"/></linearGradient><linearGradient id="linear-gradient-10" x1="7297.9" y1="-800.32" x2="7297.9" y2="-810.82" xlink:href="#linear-gradient-9"/><linearGradient id="linear-gradient-11" x1="7300.21" y1="-800.32" x2="7300.21" y2="-810.82" xlink:href="#linear-gradient-9"/><linearGradient id="linear-gradient-12" x1="7302.52" y1="-800.32" x2="7302.52" y2="-810.82" xlink:href="#linear-gradient-9"/><linearGradient id="linear-gradient-13" x1="7304.84" y1="-800.32" x2="7304.84" y2="-810.82" xlink:href="#linear-gradient-9"/><linearGradient id="linear-gradient-14" x1="7307.15" y1="-800.32" x2="7307.15" y2="-810.82" xlink:href="#linear-gradient-9"/><linearGradient id="linear-gradient-15" x1="7309.47" y1="-800.32" x2="7309.47" y2="-810.82" xlink:href="#linear-gradient-9"/><linearGradient id="linear-gradient-16" x1="7311.78" y1="-800.32" x2="7311.78" y2="-810.82" xlink:href="#linear-gradient-9"/><linearGradient id="linear-gradient-17" x1="7314.09" y1="-800.32" x2="7314.09" y2="-810.82" xlink:href="#linear-gradient-9"/><linearGradient id="linear-gradient-18" x1="7316.41" y1="-800.32" x2="7316.41" y2="-810.82" xlink:href="#linear-gradient-9"/><linearGradient id="linear-gradient-19" x1="7318.72" y1="-800.32" x2="7318.72" y2="-810.82" xlink:href="#linear-gradient-9"/><linearGradient id="linear-gradient-20" x1="7321.03" y1="-800.32" x2="7321.03" y2="-810.82" xlink:href="#linear-gradient-9"/><linearGradient id="linear-gradient-21" x1="4971.53" y1="51.45" x2="4972.94" y2="52.95" gradientTransform="translate(-4913.15)" gradientUnits="userSpaceOnUse"><stop offset="0" stop-color="#fff"/><stop offset="1" stop-color="#fff" stop-opacity="0"/></linearGradient></defs><title>Logo-jocotoco</title><g class="cls-2"><g id="Capa_1" data-name="Capa 1"><circle class="cls-3" cx="80" cy="80" r="76.23"/><circle class="cls-4" cx="80" cy="80" r="61.07"/><path class="cls-5" d="M65.42,53.84c.18,0-17.51,2.84-18.83,4.09a12.65,12.65,0,0,0-4.19,4.12C34.24,75.91,40,85.51,40,85.51a33.52,33.52,0,0,0,5.77,0l-.17.1s-.1,2.73,1.06,4.18a24.92,24.92,0,0,0,1.28-3.7,5.36,5.36,0,0,0,1,2.48A24,24,0,0,0,50.2,84.7l.56-.17a2.65,2.65,0,0,0,.68,1.17A14.11,14.11,0,0,0,52,84.1a14.21,14.21,0,0,0,7.13-5.73,36.53,36.53,0,0,0,3.31-7.1c.08-.23.06.94.13.7s.28-2,.36-2.25.29,1.24.39.86.13-2.82.21-3.21c0-.19.18.79.22.59s0-1.65,0-1.88,0-.12.05-.3.1.35.12.24,0-1,0-1.11c0-.25.17.44.18.21S64,63.82,64,63.64a4.73,4.73,0,0,0-.63-2.85c.14.17,1,.83,1,.83-.72-1.06-1.6-2.18-1.62-2.3a9,9,0,0,0,1.37,1.23,4.85,4.85,0,0,1-.82-2.22,2.48,2.48,0,0,0,.82,1.17,7,7,0,0,1-.37-1.7,1.48,1.48,0,0,0,.29.64,7.46,7.46,0,0,1-.15-1.72,1,1,0,0,0,.42.7c-.16-.53-.26-.94-.1-1.22a1.76,1.76,0,0,0,.42.89,3.33,3.33,0,0,1,0-.9c.08-.16.55-.44,1.45-.07a1.22,1.22,0,0,0-.89-.73,5.12,5.12,0,0,1,1.06.23,2.9,2.9,0,0,0-.75-.47,3.88,3.88,0,0,0,1-.58C68.06,54.4,65.23,53.91,65.42,53.84Z"/><path class="cls-6" d="M66.63,54.36H62.55l.15-3.58L53,50.4,50,53.91a40.23,40.23,0,0,1-3.51,3.53,12.55,12.55,0,0,0-4.17,4.13c-8.11,13.89-2.94,25-2.94,25,12,.89,17.75-5.52,19.72-8.78a33.91,33.91,0,0,0,4.86-14.74,4.67,4.67,0,0,0-1.14-3,12.14,12.14,0,0,0,1,.83,9.3,9.3,0,0,1-1.13-2.13,13.81,13.81,0,0,0,1,1.23,3.92,3.92,0,0,1-.42-2.19,1.6,1.6,0,0,0,.55,1,6.73,6.73,0,0,1-.19-1.75,1.25,1.25,0,0,0,.26.59,5,5,0,0,1,0-1.53,1.55,1.55,0,0,0,.29.78,1.26,1.26,0,0,1,.12-1.12,1.09,1.09,0,0,0,.26.71,3.33,3.33,0,0,1,0-.9c.08-.16.37-.18,1.27.18a2,2,0,0,0-1-.52h0a3.55,3.55,0,0,1,1.06.11,1.26,1.26,0,0,0-.7-.29,4.92,4.92,0,0,1,1.59-.64C67,54.4,66.63,54.36,66.63,54.36Z"/><path class="cls-7" d="M62.55,54.36l.15-3.58L53,50.4,50,53.91a40.23,40.23,0,0,1-3.51,3.53,14.58,14.58,0,0,0-2.72,2.23c-.44.49,3,.15,4.66.47,3.74.71,11.23-1.65,13.24-3.68C62.87,55.21,62.55,54.36,62.55,54.36Z"/><g class="cls-8"><path class="cls-9" d="M74.43,58.8a1.3,1.3,0,0,1-2.51-.66l-.08,0a1.3,1.3,0,0,1-2.52-.62,1.4,1.4,0,0,0,1.65-1l-.09,0a1.29,1.29,0,0,1-2.5-.66l-.09,0a1.29,1.29,0,0,1-1.58.92,1.3,1.3,0,0,1-.93-1.58l-.08,0a1.29,1.29,0,0,1-1.58.92,1.3,1.3,0,0,1-.93-1.58l-.08,0a1.3,1.3,0,0,1-2.51-.66l-.08,0A1.3,1.3,0,0,1,58,53.1l-.08,0a1.3,1.3,0,0,1-2.51-.66l-.08,0a1.3,1.3,0,0,1-2.51-.66l-.08,0a1.3,1.3,0,0,1-2.51-.66l-.08,0a1.3,1.3,0,0,1-2.51-.66l-.08,0a1.31,1.31,0,0,1-1.59.92,1.29,1.29,0,0,1-.92-1.58l-.08,0a1.31,1.31,0,0,1-1.59.92A1.29,1.29,0,0,1,42.47,49l-.09,0a1.29,1.29,0,1,1-2.5-.65l-.09,0a1.39,1.39,0,0,0,2.55,1,1.39,1.39,0,0,0,1,1.33,1.37,1.37,0,0,0,1,1.63,1.29,1.29,0,0,1-2.49-.69l-.09,0a1.29,1.29,0,1,1-2.5-.66l-.09,0a1.29,1.29,0,1,1-2.5-.65l-.09,0a1.39,1.39,0,0,0,2.55,1,1.38,1.38,0,0,0,1,1.33A1.39,1.39,0,0,0,41,54.22a1.29,1.29,0,0,1-2.49-.7l-.09,0a1.29,1.29,0,0,1-2.5-.66l-.09,0a1.39,1.39,0,0,0,2.55,1,1.38,1.38,0,0,0,1,1.33,1.38,1.38,0,0,0,.95,1.64,1.29,1.29,0,0,1-2.49-.7l-.09,0a1.3,1.3,0,0,1-2.51-.66l-.08,0a1.39,1.39,0,0,0,2.55,1,1.38,1.38,0,0,0,1,1.33,1.38,1.38,0,0,0,.95,1.64,1.29,1.29,0,0,1-2.49-.7l-.09,0A1.3,1.3,0,0,1,34.56,58l-.08,0A1.38,1.38,0,0,0,37,59a1.38,1.38,0,0,0,1,1.33A1.38,1.38,0,0,0,39,62a1.3,1.3,0,0,1-2.5-.7l-.08,0a1.3,1.3,0,0,1-2.51-.66l-.08,0a1.38,1.38,0,0,0,2.55,1,1.37,1.37,0,0,0,1,1.33,1.38,1.38,0,0,0,.95,1.64,1.3,1.3,0,0,1-2.49-.74l-.08,0a1.38,1.38,0,0,0,2.55,1,1.37,1.37,0,0,0,1,1.33,1.38,1.38,0,0,0,1,1.64,1.29,1.29,0,0,1-2.49-.7l-.09,0a1.3,1.3,0,0,1-2.51-.66l-.08,0a1.3,1.3,0,0,1-2.51-.66l-.08,0a1.38,1.38,0,0,0,2.55,1,1.37,1.37,0,0,0,1,1.33,1.38,1.38,0,0,0,.95,1.64,1.3,1.3,0,0,1-2.5-.7l-.08,0a1.3,1.3,0,0,1-2.51-.66l-.08,0a1.38,1.38,0,0,0,2.55,1,1.37,1.37,0,0,0,1,1.33,1.38,1.38,0,0,0,.95,1.64,1.3,1.3,0,0,1-2.5-.7l-.08,0a1.29,1.29,0,0,1-1.58.92,1.3,1.3,0,0,1-.93-1.58l-.08,0a1.38,1.38,0,0,0,2.54,1,1.38,1.38,0,0,0,1,1.33,1.38,1.38,0,0,0,.95,1.64,1.3,1.3,0,0,1-2.5-.7l-.08,0a1.29,1.29,0,0,1-1.58.92,1.3,1.3,0,0,1-.93-1.58l-.08,0a1.38,1.38,0,0,0,2.54,1,1.38,1.38,0,0,0,1,1.33,1.38,1.38,0,0,0,.95,1.64,1.3,1.3,0,0,1-2.5-.7l-.08,0a1.3,1.3,0,1,1-2.51-.66l-.08,0a1.38,1.38,0,0,0,2.54,1,1.4,1.4,0,0,0,1,1.34,1.38,1.38,0,0,0,2.55,1,1.38,1.38,0,0,0,2.59.68,1.38,1.38,0,0,0,2.59.68,1.38,1.38,0,0,0,2.59.68,1.38,1.38,0,0,0,2.59.68,1.38,1.38,0,0,0,2.59.68,1.38,1.38,0,0,0,2.59.68,1.38,1.38,0,0,0,2.59.68,1.39,1.39,0,0,0,2.6.68,1.37,1.37,0,0,0,1,1.35,1.39,1.39,0,0,0,1.56-.67,1.38,1.38,0,0,0,1,1.35,1.4,1.4,0,0,0,1.56-.66,1.38,1.38,0,0,0,1,1.34,1.39,1.39,0,0,0,1.69-1l-.09,0a1.29,1.29,0,1,1-2.5-.66l-.09,0a1.29,1.29,0,0,1-2.51-.62,1.37,1.37,0,0,0,1.63-1,1.39,1.39,0,0,0,1.52-.68,1.38,1.38,0,0,0,2.72.36L65,84a1.29,1.29,0,1,1-2.5-.66l-.09,0a1.29,1.29,0,0,1-2.51-.62,1.37,1.37,0,0,0,1.63-1,1.38,1.38,0,0,0,1.52-.68,1.38,1.38,0,0,0,2.72.36l-.09,0a1.29,1.29,0,1,1-2.5-.66l-.09,0a1.29,1.29,0,0,1-2.51-.62,1.38,1.38,0,0,0,1.63-1,1.38,1.38,0,0,0,1.52-.68,1.38,1.38,0,0,0,2.72.36l-.08,0a1.3,1.3,0,1,1-2.51-.66l-.09,0a1.29,1.29,0,0,1-2.51-.62,1.39,1.39,0,0,0,1.63-1,1.38,1.38,0,0,0,1.52-.68,1.38,1.38,0,0,0,2.72.36l-.08,0a1.3,1.3,0,0,1-2.51-.66l-.09,0A1.29,1.29,0,0,1,62,74.91a1.39,1.39,0,0,0,1.63-1,1.38,1.38,0,0,0,1.52-.68,1.38,1.38,0,0,0,2.59.68,1.38,1.38,0,0,0,2.72.36l-.08,0a1.3,1.3,0,0,1-2.51-.66l-.08,0A1.3,1.3,0,0,1,65.25,73a1.38,1.38,0,0,0,1.62-.91,1.39,1.39,0,0,0,1.65-1l-.08,0a1.3,1.3,0,0,1-2.51-.66l-.08,0a1.3,1.3,0,0,1-1.59.92h0a1.28,1.28,0,0,1-.93-1.54,1.39,1.39,0,0,0,1.63-1,1.38,1.38,0,0,0,1.52-.68,1.38,1.38,0,0,0,2.72.36l-.08,0a1.3,1.3,0,0,1-2.51-.66l-.08,0a1.31,1.31,0,0,1-1.59.92A1.28,1.28,0,0,1,64,67.18a1.38,1.38,0,0,0,1.63-1,1.37,1.37,0,0,0,1.52-.67,1.38,1.38,0,0,0,2.72.36l-.08,0a1.3,1.3,0,0,1-2.51-.66l-.08,0a1.31,1.31,0,0,1-1.59.92,1.3,1.3,0,0,1-.93-1.54,1.38,1.38,0,0,0,1.63-1A1.38,1.38,0,0,0,67.84,63a1.38,1.38,0,0,0,2.72.36l-.08,0A1.3,1.3,0,0,1,68,62.64l-.08,0A1.3,1.3,0,0,1,65.37,62,1.38,1.38,0,0,0,67,61a1.38,1.38,0,0,0,1.52-.67,1.38,1.38,0,0,0,2.72.36l-.08,0a1.3,1.3,0,0,1-2.51-.66l-.08,0a1.3,1.3,0,0,1-2.52-.62,1.38,1.38,0,0,0,1.63-1,1.38,1.38,0,0,0,1.52-.67,1.39,1.39,0,0,0,1,1.34,1.37,1.37,0,0,0,1.56-.66,1.39,1.39,0,0,0,1,1.34,1.37,1.37,0,0,0,1.69-1Zm-8.77-3.34a1.38,1.38,0,0,0,1,1.33,1.29,1.29,0,0,1-2.5-.65A1.39,1.39,0,0,0,65.66,55.46Zm-9,29A1.3,1.3,0,0,1,55.71,83a1.39,1.39,0,0,0,1.52-.68,1.37,1.37,0,0,0,1,1.33A1.29,1.29,0,0,1,56.64,84.5Zm-2.59-.68a1.3,1.3,0,0,1-.93-1.54,1.39,1.39,0,0,0,1.52-.68,1.37,1.37,0,0,0,1,1.33A1.29,1.29,0,0,1,54.05,83.82Zm-2.59-.68a1.29,1.29,0,0,1-.93-1.54A1.37,1.37,0,0,0,52,80.92a1.4,1.4,0,0,0,1,1.33A1.29,1.29,0,0,1,51.46,83.14Zm-2.59-.68a1.29,1.29,0,0,1-.93-1.54,1.37,1.37,0,0,0,1.51-.68,1.39,1.39,0,0,0,1,1.33A1.29,1.29,0,0,1,48.87,82.46Zm-2.59-.68a1.29,1.29,0,0,1-.93-1.54,1.38,1.38,0,0,0,1.51-.68,1.39,1.39,0,0,0,1,1.33A1.3,1.3,0,0,1,46.28,81.78Zm-2.59-.68a1.29,1.29,0,0,1-.93-1.54,1.38,1.38,0,0,0,1.51-.68,1.39,1.39,0,0,0,1,1.33A1.3,1.3,0,0,1,43.69,81.1Zm-2.59-.68a1.3,1.3,0,0,1-.93-1.55,1.37,1.37,0,0,0,1.51-.67,1.39,1.39,0,0,0,1,1.33A1.3,1.3,0,0,1,41.1,80.42Zm-2.59-.68a1.3,1.3,0,0,1-.93-1.55,1.37,1.37,0,0,0,1.51-.67,1.39,1.39,0,0,0,1,1.33A1.3,1.3,0,0,1,38.51,79.74Zm-2.59-.68A1.31,1.31,0,0,1,35,77.51a1.38,1.38,0,0,0,1.52-.67,1.39,1.39,0,0,0,1,1.33A1.3,1.3,0,0,1,35.92,79.06Zm-.25-4.14a1.38,1.38,0,0,0,1.51-.67,1.39,1.39,0,0,0,1,1.33,1.29,1.29,0,0,1-2.5-.66Zm.68-2.59a1.38,1.38,0,0,0,1.51-.67,1.39,1.39,0,0,0,1,1.33,1.29,1.29,0,0,1-2.5-.66ZM37,69.74a1.38,1.38,0,0,0,1.51-.67,1.39,1.39,0,0,0,1,1.33,1.29,1.29,0,0,1-2.5-.66Zm3.27-1.91a1.38,1.38,0,0,0,1.51-.67,1.39,1.39,0,0,0,1,1.33,1.29,1.29,0,0,1-2.5-.66ZM39.06,62a1.38,1.38,0,0,0,1.51-.67,1.39,1.39,0,0,0,1,1.33,1.3,1.3,0,0,1-1.57.88A1.28,1.28,0,0,1,39.06,62Zm.68-2.59a1.38,1.38,0,0,0,1.51-.67,1.39,1.39,0,0,0,1,1.33,1.29,1.29,0,0,1-2.5-.66Zm.68-2.59a1.37,1.37,0,0,0,1.51-.68,1.37,1.37,0,0,0,1,1.33,1.29,1.29,0,0,1-2.5-.65Zm.68-2.59a1.37,1.37,0,0,0,1.51-.68,1.37,1.37,0,0,0,1,1.33,1.29,1.29,0,0,1-2.5-.65Zm3.27-1.91a1.39,1.39,0,0,0,1.52-.68,1.36,1.36,0,0,0,1,1.33,1.29,1.29,0,0,1-2.5-.65ZM55.69,82.87a1.3,1.3,0,0,1-.93-1.55,1.38,1.38,0,0,0,1.51-.67,1.39,1.39,0,0,0,1,1.33A1.3,1.3,0,0,1,55.69,82.87Zm-2.59-.69a1.28,1.28,0,0,1-.93-1.54A1.38,1.38,0,0,0,53.68,80a1.39,1.39,0,0,0,1,1.33A1.29,1.29,0,0,1,53.1,82.18Zm-2.59-.68A1.3,1.3,0,0,1,49.57,80a1.39,1.39,0,0,0,1.52-.67,1.39,1.39,0,0,0,1,1.33A1.29,1.29,0,0,1,50.51,81.5Zm-2.59-.68A1.3,1.3,0,0,1,47,79.28a1.39,1.39,0,0,0,1.52-.67,1.39,1.39,0,0,0,1,1.33A1.3,1.3,0,0,1,47.92,80.82Zm-2.59-.68a1.3,1.3,0,0,1-.94-1.54,1.39,1.39,0,0,0,1.52-.67,1.38,1.38,0,0,0,1,1.33A1.3,1.3,0,0,1,45.33,80.14Zm-2.6-.68a1.3,1.3,0,0,1-.93-1.54,1.4,1.4,0,0,0,1.52-.67,1.38,1.38,0,0,0,1,1.33A1.31,1.31,0,0,1,42.73,79.46Zm-2.59-.68a1.3,1.3,0,0,1-.93-1.54,1.39,1.39,0,0,0,1.52-.68,1.38,1.38,0,0,0,1,1.34A1.31,1.31,0,0,1,40.14,78.78Zm-2.59-.68a1.3,1.3,0,0,1-.93-1.54,1.39,1.39,0,0,0,1.52-.68,1.36,1.36,0,0,0,1,1.33A1.29,1.29,0,0,1,37.55,78.1ZM37.3,74a1.39,1.39,0,0,0,1.52-.68,1.37,1.37,0,0,0,1,1.33A1.29,1.29,0,0,1,37.3,74ZM38,71.38a1.39,1.39,0,0,0,1.52-.68,1.38,1.38,0,0,0,1,1.33A1.3,1.3,0,0,1,38,71.38Zm3.27-1.91a1.38,1.38,0,0,0,1.52-.68,1.38,1.38,0,0,0,1,1.33,1.3,1.3,0,0,1-2.51-.65Zm.68-2.59a1.38,1.38,0,0,0,1.52-.68,1.38,1.38,0,0,0,1,1.33,1.3,1.3,0,0,1-2.51-.65Zm-1.24-5.82a1.4,1.4,0,0,0,1.52-.68,1.38,1.38,0,0,0,1,1.33,1.3,1.3,0,0,1-2.51-.65Zm.68-2.6a1.38,1.38,0,0,0,1.52-.67,1.38,1.38,0,0,0,1,1.33,1.3,1.3,0,0,1-2.51-.66Zm.68-2.59a1.38,1.38,0,0,0,1.52-.67,1.39,1.39,0,0,0,1,1.33,1.3,1.3,0,0,1-2.51-.66ZM45.32,54a1.39,1.39,0,0,0,1.52-.67,1.39,1.39,0,0,0,1,1.33A1.3,1.3,0,0,1,45.32,54ZM59.08,70a1.29,1.29,0,0,1-.93-1.54,1.38,1.38,0,0,0,1.51-.67,1.39,1.39,0,0,0,1,1.33A1.3,1.3,0,0,1,59.08,70ZM54.73,81.23a1.3,1.3,0,0,1-.93-1.54A1.39,1.39,0,0,0,55.32,79a1.38,1.38,0,0,0,1,1.33A1.29,1.29,0,0,1,54.73,81.23Zm-2.59-.68A1.29,1.29,0,0,1,51.21,79a1.39,1.39,0,0,0,1.52-.68,1.38,1.38,0,0,0,1,1.33A1.29,1.29,0,0,1,52.14,80.55Zm-2.59-.68a1.29,1.29,0,0,1-.93-1.54,1.38,1.38,0,0,0,1.51-.68,1.4,1.4,0,0,0,1,1.33A1.29,1.29,0,0,1,49.55,79.87ZM47,79.19A1.29,1.29,0,0,1,46,77.65,1.38,1.38,0,0,0,47.54,77a1.39,1.39,0,0,0,1,1.33A1.29,1.29,0,0,1,47,79.19Zm-2.59-.68A1.3,1.3,0,0,1,43.44,77,1.36,1.36,0,0,0,45,76.29a1.39,1.39,0,0,0,1,1.33A1.3,1.3,0,0,1,44.37,78.51Zm-2.59-.68a1.3,1.3,0,0,1-.93-1.55,1.36,1.36,0,0,0,1.51-.67,1.39,1.39,0,0,0,1,1.33A1.3,1.3,0,0,1,41.78,77.83Zm-2.59-.68a1.3,1.3,0,0,1-.93-1.55,1.38,1.38,0,0,0,1.51-.67,1.39,1.39,0,0,0,1,1.33A1.3,1.3,0,0,1,39.19,77.15ZM38.94,73a1.38,1.38,0,0,0,1.51-.67,1.39,1.39,0,0,0,1,1.33,1.29,1.29,0,0,1-2.5-.66Zm3.27-1.91a1.38,1.38,0,0,0,1.51-.67,1.39,1.39,0,0,0,1,1.33,1.29,1.29,0,0,1-2.5-.66Zm.68-2.59a1.38,1.38,0,0,0,1.51-.67,1.39,1.39,0,0,0,1,1.33,1.29,1.29,0,0,1-2.5-.66ZM43.56,66a1.38,1.38,0,0,0,1.51-.67,1.39,1.39,0,0,0,1,1.33,1.3,1.3,0,0,1-2.5-.66ZM42.33,60.1a1.38,1.38,0,0,0,1.51-.67,1.39,1.39,0,0,0,1,1.33,1.29,1.29,0,0,1-2.5-.66ZM43,57.51a1.38,1.38,0,0,0,1.51-.67,1.39,1.39,0,0,0,1,1.33,1.29,1.29,0,0,1-2.5-.66Zm3.27-1.91a1.39,1.39,0,0,0,1.52-.68,1.38,1.38,0,0,0,1,1.34,1.29,1.29,0,0,1-2.5-.66Zm7.5,24a1.28,1.28,0,0,1-.93-1.54,1.38,1.38,0,0,0,1.51-.67,1.39,1.39,0,0,0,1,1.33A1.29,1.29,0,0,1,53.78,79.59Zm-2.59-.68a1.3,1.3,0,0,1-.94-1.54,1.39,1.39,0,0,0,1.52-.67,1.39,1.39,0,0,0,1,1.33A1.3,1.3,0,0,1,51.19,78.91Zm-2.59-.68a1.3,1.3,0,0,1-.94-1.54A1.39,1.39,0,0,0,49.18,76a1.39,1.39,0,0,0,1,1.33A1.3,1.3,0,0,1,48.6,78.23ZM46,77.55A1.3,1.3,0,0,1,45.07,76a1.38,1.38,0,0,0,1.52-.68,1.38,1.38,0,0,0,1,1.34A1.3,1.3,0,0,1,46,77.55Zm-2.59-.68a1.3,1.3,0,0,1-.94-1.54A1.38,1.38,0,0,0,44,74.65,1.36,1.36,0,0,0,45,76,1.3,1.3,0,0,1,43.42,76.87Zm-2.6-.68a1.3,1.3,0,0,1-.93-1.54A1.39,1.39,0,0,0,41.41,74a1.36,1.36,0,0,0,1,1.33A1.31,1.31,0,0,1,40.82,76.19Zm2.34-3.45a1.38,1.38,0,0,0,1.52-.68,1.36,1.36,0,0,0,1,1.33,1.3,1.3,0,0,1-2.51-.65Zm.68-2.59a1.38,1.38,0,0,0,1.52-.68,1.38,1.38,0,0,0,1,1.33,1.3,1.3,0,0,1-2.51-.65Zm.68-2.59A1.38,1.38,0,0,0,46,66.88a1.39,1.39,0,0,0,1,1.33,1.3,1.3,0,0,1-2.51-.65ZM45.19,65a1.38,1.38,0,0,0,1.52-.68,1.38,1.38,0,0,0,1,1.33A1.3,1.3,0,0,1,45.19,65ZM44,59.15a1.4,1.4,0,0,0,1.52-.68,1.39,1.39,0,0,0,1,1.33A1.3,1.3,0,0,1,44,59.15Zm3.28-1.91a1.39,1.39,0,0,0,1.51-.68,1.39,1.39,0,0,0,1,1.33,1.29,1.29,0,0,1-2.5-.65Zm9.25,12h0a1.29,1.29,0,0,1-.93-1.54,1.37,1.37,0,0,0,1.51-.68,1.39,1.39,0,0,0,1,1.34A1.3,1.3,0,0,1,56.49,69.27ZM52.82,78a1.31,1.31,0,0,1-.93-1.54,1.4,1.4,0,0,0,1.52-.68,1.38,1.38,0,0,0,1,1.33A1.29,1.29,0,0,1,52.82,78Zm-2.59-.68a1.3,1.3,0,0,1-.93-1.55,1.38,1.38,0,0,0,1.52-.67,1.38,1.38,0,0,0,1,1.33A1.29,1.29,0,0,1,50.23,77.28Zm-2.59-.68a1.3,1.3,0,0,1-.93-1.55,1.36,1.36,0,0,0,1.51-.67,1.39,1.39,0,0,0,1,1.33A1.29,1.29,0,0,1,47.64,76.6Zm-2.59-.68a1.3,1.3,0,0,1-.93-1.55,1.38,1.38,0,0,0,1.51-.67,1.39,1.39,0,0,0,1,1.33A1.3,1.3,0,0,1,45.05,75.92Zm-.25-4.14a1.38,1.38,0,0,0,1.51-.67,1.39,1.39,0,0,0,1,1.33,1.29,1.29,0,0,1-2.5-.66Zm.68-2.59A1.38,1.38,0,0,0,47,68.52a1.4,1.4,0,0,0,1,1.33,1.29,1.29,0,0,1-2.5-.66Zm.67-2.55A1.38,1.38,0,0,0,47.66,66a1.39,1.39,0,0,0,1,1.33,1.3,1.3,0,0,1-2.5-.66Zm.68-2.59a1.38,1.38,0,0,0,1.51-.67,1.4,1.4,0,0,0,1,1.33,1.29,1.29,0,0,1-2.5-.66Zm.68-2.59A1.38,1.38,0,0,0,49,60.79a1.4,1.4,0,0,0,1,1.33,1.29,1.29,0,0,1-2.5-.66Zm.68-2.59a1.4,1.4,0,0,0,1.52-.67,1.38,1.38,0,0,0,1,1.33,1.29,1.29,0,0,1-2.5-.66Zm3.68,17.45a1.29,1.29,0,0,1-.93-1.54,1.38,1.38,0,0,0,1.51-.67,1.39,1.39,0,0,0,1,1.33A1.3,1.3,0,0,1,51.87,76.32Zm-2.59-.68a1.3,1.3,0,0,1-.94-1.54,1.38,1.38,0,0,0,1.52-.68,1.37,1.37,0,0,0,1,1.33A1.3,1.3,0,0,1,49.28,75.64ZM46.69,75a1.3,1.3,0,0,1-.94-1.54,1.38,1.38,0,0,0,1.52-.68,1.37,1.37,0,0,0,1,1.33A1.3,1.3,0,0,1,46.69,75Zm-.26-4.13A1.38,1.38,0,0,0,48,70.15a1.38,1.38,0,0,0,1,1.33,1.3,1.3,0,0,1-2.51-.65Zm.68-2.59a1.38,1.38,0,0,0,1.52-.68,1.39,1.39,0,0,0,1,1.33,1.3,1.3,0,0,1-2.51-.65Zm.67-2.55A1.38,1.38,0,0,0,49.3,65a1.38,1.38,0,0,0,1,1.33,1.3,1.3,0,0,1-1.57.89h0A1.3,1.3,0,0,1,47.78,65.69Zm.68-2.59A1.38,1.38,0,0,0,50,62.42a1.39,1.39,0,0,0,1,1.33,1.3,1.3,0,0,1-2.51-.65Zm.69-2.59a1.38,1.38,0,0,0,1.51-.68,1.39,1.39,0,0,0,1,1.33,1.29,1.29,0,0,1-2.5-.65Zm1.76,14.18A1.31,1.31,0,0,1,50,73.14a1.38,1.38,0,0,0,1.52-.67,1.38,1.38,0,0,0,1,1.33A1.29,1.29,0,0,1,50.91,74.69ZM48.32,74a1.3,1.3,0,0,1-.93-1.55,1.38,1.38,0,0,0,1.51-.67,1.4,1.4,0,0,0,1,1.33A1.3,1.3,0,0,1,48.32,74Zm-.25-4.14a1.4,1.4,0,0,0,1.52-.67,1.38,1.38,0,0,0,1,1.33,1.29,1.29,0,0,1-2.5-.66Zm.67-2.55a1.38,1.38,0,0,0,1.51-.67,1.39,1.39,0,0,0,1,1.33,1.3,1.3,0,0,1-2.5-.66Zm.68-2.59a1.4,1.4,0,0,0,1.52-.67,1.38,1.38,0,0,0,1,1.33,1.29,1.29,0,0,1-2.5-.66Zm.68-2.59a1.4,1.4,0,0,0,1.52-.67,1.38,1.38,0,0,0,1,1.33,1.28,1.28,0,0,1-1.57.88A1.3,1.3,0,0,1,50.1,62.14ZM50,73.05A1.3,1.3,0,0,1,49,71.51a1.38,1.38,0,0,0,1.52-.68,1.37,1.37,0,0,0,1,1.33A1.3,1.3,0,0,1,50,73.05Zm-.25-4.13a1.38,1.38,0,0,0,1.51-.68,1.38,1.38,0,0,0,1,1.33,1.29,1.29,0,0,1-2.5-.65Zm.67-2.55a1.38,1.38,0,0,0,1.51-.68,1.37,1.37,0,0,0,1,1.33,1.29,1.29,0,0,1-2.5-.65Zm.68-2.59a1.38,1.38,0,0,0,1.51-.68,1.38,1.38,0,0,0,1,1.33,1.29,1.29,0,0,1-2.5-.65Zm.53,8.32a1.31,1.31,0,0,1-.93-1.55,1.4,1.4,0,0,0,1.52-.67,1.38,1.38,0,0,0,1,1.33A1.3,1.3,0,0,1,51.59,72.1Zm.68-2.59A1.31,1.31,0,0,1,51.33,68a1.4,1.4,0,0,0,1.52-.67,1.38,1.38,0,0,0,1,1.33A1.3,1.3,0,0,1,52.27,69.51ZM52.94,67A1.31,1.31,0,0,1,52,65.41a1.4,1.4,0,0,0,1.52-.67,1.38,1.38,0,0,0,1,1.33A1.3,1.3,0,0,1,52.94,67Zm.68-2.59a1.31,1.31,0,0,1-.93-1.55,1.4,1.4,0,0,0,1.52-.67,1.38,1.38,0,0,0,1,1.33A1.31,1.31,0,0,1,53.62,64.37Zm-1.07,9.36a1.29,1.29,0,0,1-.93-1.54,1.38,1.38,0,0,0,1.51-.68,1.37,1.37,0,0,0,1,1.33A1.3,1.3,0,0,1,52.55,73.73Zm.68-2.59a1.29,1.29,0,0,1-.93-1.54,1.38,1.38,0,0,0,1.51-.68,1.37,1.37,0,0,0,1,1.33A1.3,1.3,0,0,1,53.23,71.14Zm.67-2.55A1.29,1.29,0,0,1,53,67.05a1.38,1.38,0,0,0,1.51-.68,1.37,1.37,0,0,0,1,1.33A1.3,1.3,0,0,1,53.9,68.59ZM54.58,66a1.29,1.29,0,0,1-.93-1.54,1.37,1.37,0,0,0,1.51-.68,1.37,1.37,0,0,0,1,1.33A1.3,1.3,0,0,1,54.58,66Zm.68-2.59a1.29,1.29,0,0,1-.93-1.54,1.37,1.37,0,0,0,1.51-.68,1.39,1.39,0,0,0,1,1.33A1.3,1.3,0,0,1,55.26,63.41Zm-2.59-.68a1.29,1.29,0,0,1-.93-1.54,1.38,1.38,0,0,0,1.51-.68,1.39,1.39,0,0,0,1,1.33A1.3,1.3,0,0,1,52.67,62.73Zm.83,12.64a1.31,1.31,0,0,1-.93-1.55,1.38,1.38,0,0,0,1.52-.67,1.38,1.38,0,0,0,1,1.33A1.29,1.29,0,0,1,53.5,75.37Zm.68-2.59a1.31,1.31,0,0,1-.93-1.55,1.38,1.38,0,0,0,1.52-.67,1.38,1.38,0,0,0,1,1.33A1.31,1.31,0,0,1,54.18,72.78Zm.68-2.59a1.3,1.3,0,0,1-.94-1.5A1.4,1.4,0,0,0,55.44,68a1.38,1.38,0,0,0,1,1.33A1.3,1.3,0,0,1,54.86,70.19Zm.67-2.55a1.31,1.31,0,0,1-.93-1.55,1.38,1.38,0,0,0,1.52-.67,1.38,1.38,0,0,0,1,1.33A1.31,1.31,0,0,1,55.53,67.64Zm.69-2.59a1.31,1.31,0,0,1-.94-1.55,1.4,1.4,0,0,0,1.52-.67,1.38,1.38,0,0,0,1,1.33A1.31,1.31,0,0,1,56.22,65.05Zm.68-2.59A1.31,1.31,0,0,1,56,60.91a1.39,1.39,0,0,0,1.52-.67,1.38,1.38,0,0,0,1,1.33A1.31,1.31,0,0,1,56.9,62.46Zm-2.6-.69a1.3,1.3,0,0,1-.93-1.54,1.4,1.4,0,0,0,1.52-.67,1.38,1.38,0,0,0,1,1.33A1.3,1.3,0,0,1,54.3,61.77Zm-2.59-.68a1.3,1.3,0,0,1-.93-1.54,1.4,1.4,0,0,0,1.52-.67,1.38,1.38,0,0,0,1,1.33A1.3,1.3,0,0,1,51.71,61.09ZM54.46,77a1.29,1.29,0,0,1-.93-1.54A1.38,1.38,0,0,0,55,74.79a1.39,1.39,0,0,0,1,1.33A1.3,1.3,0,0,1,54.46,77Zm.68-2.59a1.29,1.29,0,0,1-.93-1.54,1.37,1.37,0,0,0,1.51-.68,1.39,1.39,0,0,0,1,1.34A1.3,1.3,0,0,1,55.14,74.41Zm.68-2.59a1.29,1.29,0,0,1-.93-1.54,1.37,1.37,0,0,0,1.51-.68,1.37,1.37,0,0,0,1,1.33A1.3,1.3,0,0,1,55.82,71.82Zm1.35-5.14a1.29,1.29,0,0,1-.93-1.54,1.37,1.37,0,0,0,1.51-.68,1.37,1.37,0,0,0,1,1.33A1.3,1.3,0,0,1,57.17,66.68Zm.68-2.59a1.29,1.29,0,0,1-.93-1.54,1.37,1.37,0,0,0,1.51-.68,1.38,1.38,0,0,0,1,1.33A1.3,1.3,0,0,1,57.85,64.09Zm.68-2.59A1.29,1.29,0,0,1,57.6,60a1.37,1.37,0,0,0,1.51-.68,1.39,1.39,0,0,0,1,1.33A1.29,1.29,0,0,1,58.53,61.5Zm-2.59-.68A1.29,1.29,0,0,1,55,59.28a1.37,1.37,0,0,0,1.51-.68,1.39,1.39,0,0,0,1,1.33A1.3,1.3,0,0,1,55.94,60.82Zm-2.59-.68a1.29,1.29,0,0,1-.93-1.54,1.37,1.37,0,0,0,1.51-.68,1.39,1.39,0,0,0,1,1.33A1.3,1.3,0,0,1,53.35,60.14Zm-2.59-.68a1.29,1.29,0,0,1-.93-1.54,1.39,1.39,0,0,0,1.51-.68,1.39,1.39,0,0,0,1,1.33A1.3,1.3,0,0,1,50.76,59.46Zm-1.7,1a1.3,1.3,0,0,1-2.51-.65,1.4,1.4,0,0,0,1.52-.68A1.39,1.39,0,0,0,49.06,60.48Zm-4.14.3a1.38,1.38,0,0,0,1.51-.67,1.4,1.4,0,0,0,1,1.33,1.29,1.29,0,0,1-2.5-.66Zm.95,1.64a1.38,1.38,0,0,0,1.52-.68,1.39,1.39,0,0,0,1,1.33,1.3,1.3,0,0,1-2.51-.65Zm9.54,16.22a1.31,1.31,0,0,1-.93-1.54A1.4,1.4,0,0,0,56,76.42a1.38,1.38,0,0,0,1,1.33A1.31,1.31,0,0,1,55.41,78.64Zm.68-2.59a1.31,1.31,0,0,1-.93-1.54,1.4,1.4,0,0,0,1.52-.68,1.38,1.38,0,0,0,1,1.33A1.31,1.31,0,0,1,56.09,76.05Zm.69-2.59a1.31,1.31,0,0,1-.94-1.55,1.38,1.38,0,0,0,1.52-.67,1.38,1.38,0,0,0,1,1.33A1.3,1.3,0,0,1,56.78,73.46Zm.68-2.59a1.3,1.3,0,0,1-1-1.5A1.4,1.4,0,0,0,58,68.69,1.38,1.38,0,0,0,59,70,1.3,1.3,0,0,1,57.46,70.87Zm.67-2.55a1.31,1.31,0,0,1-.94-1.55,1.38,1.38,0,0,0,1.52-.67,1.38,1.38,0,0,0,1,1.33A1.3,1.3,0,0,1,58.13,68.32Zm.68-2.59a1.31,1.31,0,0,1-.94-1.55,1.39,1.39,0,0,0,1.52-.67,1.38,1.38,0,0,0,1,1.33A1.31,1.31,0,0,1,58.81,65.73Zm.68-2.59a1.31,1.31,0,0,1-.94-1.55,1.39,1.39,0,0,0,1.52-.67,1.39,1.39,0,0,0,1,1.33A1.31,1.31,0,0,1,59.49,63.14Zm.68-2.6A1.3,1.3,0,0,1,59.23,59a1.39,1.39,0,0,0,1.52-.67,1.39,1.39,0,0,0,1,1.33A1.29,1.29,0,0,1,60.17,60.54Zm-2.59-.68a1.3,1.3,0,0,1-.94-1.54,1.39,1.39,0,0,0,1.52-.67,1.38,1.38,0,0,0,1,1.33A1.29,1.29,0,0,1,57.58,59.86ZM55,59.18a1.3,1.3,0,0,1-.94-1.54A1.39,1.39,0,0,0,55.57,57a1.38,1.38,0,0,0,1,1.33A1.29,1.29,0,0,1,55,59.18Zm-2.6-.68A1.3,1.3,0,0,1,51.46,57,1.4,1.4,0,0,0,53,56.29a1.38,1.38,0,0,0,1,1.33A1.31,1.31,0,0,1,52.39,58.5Zm-2.59-.68a1.3,1.3,0,0,1-.93-1.54,1.4,1.4,0,0,0,1.52-.67,1.38,1.38,0,0,0,1,1.33A1.29,1.29,0,0,1,49.8,57.82Zm-1.7,1a1.29,1.29,0,0,1-2.5-.66,1.38,1.38,0,0,0,1.51-.67A1.4,1.4,0,0,0,48.1,58.85Zm-4.82,2.89a1.38,1.38,0,0,0,1.52-.68,1.39,1.39,0,0,0,1,1.33,1.3,1.3,0,0,1-2.51-.65Zm1,1.63a1.38,1.38,0,0,0,1.51-.67,1.39,1.39,0,0,0,1,1.33,1.29,1.29,0,0,1-2.5-.66Zm-.21,11a1.29,1.29,0,0,1-2.5-.66A1.38,1.38,0,0,0,43,73,1.39,1.39,0,0,0,44,74.35Zm12.34,5.92a1.28,1.28,0,0,1-.93-1.54A1.38,1.38,0,0,0,57,78.06a1.39,1.39,0,0,0,1,1.33A1.29,1.29,0,0,1,56.37,80.27Zm.68-2.59a1.28,1.28,0,0,1-.93-1.54,1.38,1.38,0,0,0,1.51-.67,1.39,1.39,0,0,0,1,1.33A1.3,1.3,0,0,1,57.05,77.68Zm.68-2.59a1.29,1.29,0,0,1-.93-1.54,1.38,1.38,0,0,0,1.51-.67,1.39,1.39,0,0,0,1,1.33A1.3,1.3,0,0,1,57.73,75.09Zm.68-2.59A1.29,1.29,0,0,1,57.48,71,1.37,1.37,0,0,0,59,70.28a1.39,1.39,0,0,0,1,1.34A1.3,1.3,0,0,1,58.41,72.5Zm1.35-5.14a1.29,1.29,0,0,1-.93-1.54,1.37,1.37,0,0,0,1.51-.68,1.39,1.39,0,0,0,1,1.34A1.3,1.3,0,0,1,59.76,67.36Zm.68-2.59a1.29,1.29,0,0,1-.93-1.54A1.37,1.37,0,0,0,61,62.55a1.37,1.37,0,0,0,1,1.33A1.29,1.29,0,0,1,60.44,64.77Zm.68-2.59a1.29,1.29,0,0,1-.93-1.54A1.37,1.37,0,0,0,61.7,60a1.39,1.39,0,0,0,1,1.33A1.29,1.29,0,0,1,61.12,62.18Zm.68-2.59a1.29,1.29,0,0,1-.93-1.54,1.37,1.37,0,0,0,1.51-.68,1.4,1.4,0,0,0,1,1.33A1.29,1.29,0,0,1,61.8,59.59Zm-2.59-.68a1.29,1.29,0,0,1-.93-1.54,1.37,1.37,0,0,0,1.51-.68,1.39,1.39,0,0,0,1,1.33A1.29,1.29,0,0,1,59.21,58.91Zm-2.59-.68a1.29,1.29,0,0,1-.93-1.54A1.38,1.38,0,0,0,57.2,56a1.39,1.39,0,0,0,1,1.33A1.3,1.3,0,0,1,56.62,58.23ZM54,57.55A1.29,1.29,0,0,1,53.1,56a1.38,1.38,0,0,0,1.51-.68,1.39,1.39,0,0,0,1,1.33A1.3,1.3,0,0,1,54,57.55Zm-2.59-.68a1.3,1.3,0,0,1-.93-1.55A1.37,1.37,0,0,0,52,54.65,1.39,1.39,0,0,0,53,56,1.3,1.3,0,0,1,51.44,56.87Zm-2.59-.68a1.3,1.3,0,0,1-.93-1.55A1.37,1.37,0,0,0,49.43,54a1.39,1.39,0,0,0,1,1.33A1.3,1.3,0,0,1,48.85,56.19Zm-1.7,1a1.3,1.3,0,0,1-1.57.89,1.31,1.31,0,0,1-.94-1.55,1.38,1.38,0,0,0,1.52-.67A1.39,1.39,0,0,0,47.15,57.21Zm-5.5,5.48A1.38,1.38,0,0,0,43.16,62a1.39,1.39,0,0,0,1,1.33,1.29,1.29,0,0,1-2.5-.66Zm1,1.64a1.38,1.38,0,0,0,1.52-.68,1.38,1.38,0,0,0,1,1.33,1.3,1.3,0,0,1-2.51-.65Zm.48,8.38a1.3,1.3,0,0,1-2.51-.65,1.39,1.39,0,0,0,1.52-.68A1.37,1.37,0,0,0,43.08,72.71Zm14.24,9.2a1.3,1.3,0,0,1-.93-1.54,1.39,1.39,0,0,0,1.52-.68,1.38,1.38,0,0,0,1,1.33A1.31,1.31,0,0,1,57.32,81.91ZM58,79.32a1.31,1.31,0,0,1-.93-1.54,1.39,1.39,0,0,0,1.52-.68,1.38,1.38,0,0,0,1,1.33A1.31,1.31,0,0,1,58,79.32Zm.69-2.59a1.31,1.31,0,0,1-.94-1.54,1.4,1.4,0,0,0,1.52-.68,1.38,1.38,0,0,0,1,1.33A1.3,1.3,0,0,1,58.69,76.73Zm.68-2.59a1.31,1.31,0,0,1-.94-1.55A1.38,1.38,0,0,0,60,71.92a1.38,1.38,0,0,0,1,1.33A1.3,1.3,0,0,1,59.37,74.14Zm.68-2.59a1.31,1.31,0,0,1-.95-1.5,1.4,1.4,0,0,0,1.52-.68,1.38,1.38,0,0,0,1,1.33A1.3,1.3,0,0,1,60.05,71.55ZM60.72,69a1.31,1.31,0,0,1-.94-1.55,1.38,1.38,0,0,0,1.52-.67,1.38,1.38,0,0,0,1,1.33A1.3,1.3,0,0,1,60.72,69Zm.68-2.59a1.31,1.31,0,0,1-.94-1.55A1.38,1.38,0,0,0,62,64.19a1.39,1.39,0,0,0,1,1.33A1.3,1.3,0,0,1,61.4,66.41Zm.68-2.59a1.31,1.31,0,0,1-.94-1.55,1.39,1.39,0,0,0,1.52-.67,1.39,1.39,0,0,0,1,1.33A1.3,1.3,0,0,1,62.08,63.82Zm.68-2.59a1.31,1.31,0,0,1-.94-1.55A1.39,1.39,0,0,0,63.34,59a1.39,1.39,0,0,0,1,1.33A1.3,1.3,0,0,1,62.76,61.23Zm.68-2.6a1.28,1.28,0,0,1-.93-1.54A1.38,1.38,0,0,0,64,56.42a1.39,1.39,0,0,0,1,1.33A1.29,1.29,0,0,1,63.44,58.63ZM60.85,58a1.3,1.3,0,0,1-.94-1.54,1.39,1.39,0,0,0,1.52-.67,1.39,1.39,0,0,0,1,1.33A1.29,1.29,0,0,1,60.85,58Zm-2.59-.68a1.3,1.3,0,0,1-.94-1.54,1.39,1.39,0,0,0,1.52-.67,1.39,1.39,0,0,0,1,1.33A1.3,1.3,0,0,1,58.26,57.27Zm-2.59-.68a1.3,1.3,0,0,1-.94-1.54,1.39,1.39,0,0,0,1.52-.67,1.38,1.38,0,0,0,1,1.33A1.3,1.3,0,0,1,55.67,56.59Zm-2.6-.68a1.3,1.3,0,0,1-.93-1.54,1.4,1.4,0,0,0,1.52-.67,1.38,1.38,0,0,0,1,1.33A1.31,1.31,0,0,1,53.07,55.91Zm-2.59-.68a1.3,1.3,0,0,1-.93-1.54A1.39,1.39,0,0,0,51.07,53a1.36,1.36,0,0,0,1,1.33A1.31,1.31,0,0,1,50.48,55.23Zm-2.59-.68A1.3,1.3,0,0,1,47,53a1.39,1.39,0,0,0,1.52-.68,1.36,1.36,0,0,0,1,1.33A1.29,1.29,0,0,1,47.89,54.55Zm-1.7,1a1.29,1.29,0,0,1-2.5-.65,1.37,1.37,0,0,0,1.51-.68A1.38,1.38,0,0,0,46.19,55.57ZM40,63.65A1.39,1.39,0,0,0,41.53,63a1.38,1.38,0,0,0,1,1.33A1.3,1.3,0,0,1,40,63.65Zm1,1.63a1.38,1.38,0,0,0,1.51-.67,1.39,1.39,0,0,0,1,1.33,1.3,1.3,0,0,1-2.5-.66Zm1.15,5.8a1.29,1.29,0,0,1-2.5-.66,1.38,1.38,0,0,0,1.51-.67A1.39,1.39,0,0,0,42.12,71.08ZM58.28,83.55A1.3,1.3,0,0,1,57.35,82a1.38,1.38,0,0,0,1.51-.67,1.39,1.39,0,0,0,1,1.33A1.3,1.3,0,0,1,58.28,83.55ZM59,81A1.28,1.28,0,0,1,58,79.41a1.38,1.38,0,0,0,1.51-.67,1.39,1.39,0,0,0,1,1.33A1.29,1.29,0,0,1,59,81Zm.68-2.59a1.28,1.28,0,0,1-.93-1.54,1.38,1.38,0,0,0,1.51-.67,1.39,1.39,0,0,0,1,1.33A1.29,1.29,0,0,1,59.64,78.36Zm.68-2.59a1.28,1.28,0,0,1-.93-1.54,1.38,1.38,0,0,0,1.51-.67,1.39,1.39,0,0,0,1,1.33A1.3,1.3,0,0,1,60.32,75.77ZM61,73.18a1.29,1.29,0,0,1-.93-1.54A1.38,1.38,0,0,0,61.58,71a1.39,1.39,0,0,0,1,1.33A1.29,1.29,0,0,1,61,73.18Zm.67-2.55a1.28,1.28,0,0,1-.93-1.54,1.38,1.38,0,0,0,1.51-.67,1.39,1.39,0,0,0,1,1.33A1.29,1.29,0,0,1,61.67,70.63ZM62.35,68a1.29,1.29,0,0,1-.93-1.54,1.38,1.38,0,0,0,1.51-.67,1.39,1.39,0,0,0,1,1.33A1.29,1.29,0,0,1,62.35,68ZM63,65.45a1.29,1.29,0,0,1-.93-1.54,1.37,1.37,0,0,0,1.51-.68,1.38,1.38,0,0,0,1,1.33A1.29,1.29,0,0,1,63,65.45Zm.68-2.59a1.29,1.29,0,0,1-.93-1.54,1.39,1.39,0,0,0,1.52-.68,1.36,1.36,0,0,0,1,1.33A1.29,1.29,0,0,1,63.71,62.86Zm.68-2.59a1.3,1.3,0,0,1-.93-1.54A1.39,1.39,0,0,0,65,58.05a1.37,1.37,0,0,0,1,1.33A1.29,1.29,0,0,1,64.39,60.27Zm-1.32-5.49a1.38,1.38,0,0,0,1,1.33,1.29,1.29,0,0,1-2.5-.65A1.39,1.39,0,0,0,63.07,54.78Zm-2.6-.68a1.4,1.4,0,0,0,1,1.33,1.29,1.29,0,0,1-2.5-.65A1.38,1.38,0,0,0,60.47,54.1Zm-2.59-.68a1.39,1.39,0,0,0,1,1.33,1.29,1.29,0,0,1-2.5-.65A1.38,1.38,0,0,0,57.88,53.42Zm-2.59-.68a1.39,1.39,0,0,0,1,1.33,1.29,1.29,0,0,1-2.5-.66A1.36,1.36,0,0,0,55.29,52.74Zm-2.59-.68a1.39,1.39,0,0,0,1,1.33,1.29,1.29,0,0,1-2.5-.66A1.36,1.36,0,0,0,52.7,52.06Zm-2.59-.68a1.39,1.39,0,0,0,1,1.33,1.29,1.29,0,0,1-2.5-.66A1.38,1.38,0,0,0,50.11,51.38Zm-2.59-.68a1.39,1.39,0,0,0,1,1.33,1.29,1.29,0,0,1-2.5-.66A1.38,1.38,0,0,0,47.52,50.7Zm-4.11,0A1.39,1.39,0,0,0,44.93,50a1.39,1.39,0,0,0,1,1.33,1.3,1.3,0,0,1-2.51-.66Zm.84,1.92a1.39,1.39,0,0,0,1,1.33,1.3,1.3,0,0,1-2.51-.66A1.39,1.39,0,0,0,44.25,52.61Zm-4.11,0a1.39,1.39,0,0,0,1.52-.67,1.38,1.38,0,0,0,1,1.33,1.3,1.3,0,0,1-2.51-.66Zm-.68,2.59A1.39,1.39,0,0,0,41,54.52a1.38,1.38,0,0,0,1,1.33,1.3,1.3,0,0,1-2.51-.66Zm-.68,2.59a1.38,1.38,0,0,0,1.52-.67,1.38,1.38,0,0,0,1,1.33,1.3,1.3,0,0,1-2.51-.66Zm-.68,2.6a1.4,1.4,0,0,0,1.52-.68,1.38,1.38,0,0,0,1,1.33,1.3,1.3,0,0,1-2.51-.65ZM37.42,63a1.4,1.4,0,0,0,1.52-.68,1.38,1.38,0,0,0,1,1.33A1.3,1.3,0,0,1,37.42,63Zm1,1.63a1.38,1.38,0,0,0,1.51-.67,1.39,1.39,0,0,0,1,1.33,1.3,1.3,0,0,1-2.5-.66Zm1,1.6a1.4,1.4,0,0,0,1.52-.68,1.38,1.38,0,0,0,1,1.33,1.3,1.3,0,0,1-2.51-.65Zm.84,1.91a1.38,1.38,0,0,0,1,1.33,1.3,1.3,0,0,1-2.51-.65A1.39,1.39,0,0,0,40.18,68.11Zm-4.11,0a1.4,1.4,0,0,0,1.52-.68,1.38,1.38,0,0,0,1,1.33,1.3,1.3,0,0,1-2.51-.65Zm-.68,2.59A1.39,1.39,0,0,0,36.91,70a1.38,1.38,0,0,0,1,1.33,1.29,1.29,0,0,1-2.5-.65Zm-.68,2.59a1.39,1.39,0,0,0,1.52-.68,1.38,1.38,0,0,0,1,1.33,1.29,1.29,0,0,1-2.5-.65ZM34,75.88a1.37,1.37,0,0,0,1.51-.68,1.38,1.38,0,0,0,1,1.33,1.29,1.29,0,0,1-2.5-.65ZM34.28,80a1.29,1.29,0,0,1-.93-1.54,1.37,1.37,0,0,0,1.51-.68,1.38,1.38,0,0,0,1,1.33A1.29,1.29,0,0,1,34.28,80Zm2.59.68a1.29,1.29,0,0,1-.93-1.54,1.4,1.4,0,0,0,1.52-.67,1.38,1.38,0,0,0,1,1.33A1.29,1.29,0,0,1,36.87,80.69Zm2.59.68a1.3,1.3,0,0,1-.93-1.54,1.4,1.4,0,0,0,1.52-.67,1.38,1.38,0,0,0,1,1.33A1.29,1.29,0,0,1,39.46,81.37Zm2.59.68a1.3,1.3,0,0,1-.93-1.54,1.4,1.4,0,0,0,1.52-.67,1.38,1.38,0,0,0,1,1.33A1.31,1.31,0,0,1,42.05,82.05Zm2.6.68a1.3,1.3,0,0,1-.94-1.54,1.4,1.4,0,0,0,1.52-.67,1.38,1.38,0,0,0,1,1.33A1.29,1.29,0,0,1,44.65,82.73Zm2.59.68a1.3,1.3,0,0,1-.94-1.54,1.39,1.39,0,0,0,1.52-.67,1.38,1.38,0,0,0,1,1.33A1.29,1.29,0,0,1,47.24,83.41Zm2.59.68a1.3,1.3,0,0,1-.94-1.54,1.39,1.39,0,0,0,1.52-.67,1.39,1.39,0,0,0,1,1.33A1.29,1.29,0,0,1,49.83,84.09Zm2.59.69a1.31,1.31,0,0,1-.94-1.55A1.39,1.39,0,0,0,53,82.56a1.39,1.39,0,0,0,1,1.33A1.3,1.3,0,0,1,52.42,84.78Zm2.59.68a1.3,1.3,0,0,1-.93-1.55,1.38,1.38,0,0,0,1.51-.67,1.39,1.39,0,0,0,1,1.33A1.3,1.3,0,0,1,55,85.46Zm2.59.68a1.3,1.3,0,0,1-.93-1.55,1.38,1.38,0,0,0,1.51-.67,1.39,1.39,0,0,0,1,1.33A1.3,1.3,0,0,1,57.6,86.14Zm3.21-1.85a1.3,1.3,0,0,1-2.51-.65A1.39,1.39,0,0,0,59.82,83,1.36,1.36,0,0,0,60.81,84.29Zm.68-2.59A1.3,1.3,0,0,1,59,81.05a1.38,1.38,0,0,0,1.52-.68A1.37,1.37,0,0,0,61.49,81.7Zm.68-2.59a1.3,1.3,0,0,1-2.51-.65,1.38,1.38,0,0,0,1.52-.68A1.38,1.38,0,0,0,62.17,79.11Zm.68-2.59a1.3,1.3,0,0,1-2.51-.65,1.38,1.38,0,0,0,1.52-.68A1.39,1.39,0,0,0,62.85,76.52ZM62,74.82A1.31,1.31,0,0,1,61,73.28a1.4,1.4,0,0,0,1.52-.68,1.39,1.39,0,0,0,1,1.33A1.3,1.3,0,0,1,62,74.82Zm1.63-1a1.28,1.28,0,0,1-.93-1.54,1.38,1.38,0,0,0,1.51-.67,1.4,1.4,0,0,0,1,1.33A1.29,1.29,0,0,1,63.59,73.86Zm2.21-3.13a1.39,1.39,0,0,0,1,1.33,1.29,1.29,0,0,1-2.5-.65A1.38,1.38,0,0,0,65.8,70.73Zm-1.6.65a1.31,1.31,0,0,1-1.56.85,1.29,1.29,0,0,1-.94-1.5,1.39,1.39,0,0,0,1.51-.68A1.39,1.39,0,0,0,64.2,71.38Zm.68-2.59a1.3,1.3,0,0,1-2.51-.65,1.4,1.4,0,0,0,1.52-.68A1.39,1.39,0,0,0,64.88,68.79Zm.68-2.59a1.3,1.3,0,0,1-1.57.89,1.31,1.31,0,0,1-.94-1.55,1.38,1.38,0,0,0,1.52-.67A1.39,1.39,0,0,0,65.56,66.2Zm.68-2.59A1.3,1.3,0,0,1,63.73,63a1.39,1.39,0,0,0,1.52-.67A1.39,1.39,0,0,0,66.24,63.61ZM66.92,61a1.29,1.29,0,0,1-2.5-.66,1.38,1.38,0,0,0,1.51-.67A1.39,1.39,0,0,0,66.92,61ZM66,59.32a1.3,1.3,0,0,1-.93-1.55,1.38,1.38,0,0,0,1.51-.67,1.39,1.39,0,0,0,1,1.33A1.3,1.3,0,0,1,66,59.32Zm1.63-1a1.3,1.3,0,0,1-.93-1.54,1.39,1.39,0,0,0,1.52-.68,1.38,1.38,0,0,0,1,1.33A1.31,1.31,0,0,1,67.66,58.36Z"/></g><path class="cls-10" d="M69.92,53.56c-.64-1.1-3.93-1.76-4.71-2a4.39,4.39,0,0,0,.21-.83s-.15.29-.33.58a4.36,4.36,0,0,0,.1-1.07,8.35,8.35,0,0,1-.29.81,8.05,8.05,0,0,0-.34-1.29s0,.61,0,1.11l-.17-.21c-.08-.51-.3-1.24-.48-1.3a6.45,6.45,0,0,1,.16.75,4,4,0,0,0-1.47-1.45c.08.14.15.27.23.39s.29.23.3.25-.2-.09-.17,0l.22.31a5.77,5.77,0,0,0-3.07-1c-2.45-.08-5.31,0-6.86,1.51s-4.19,4.74-4.19,4.74,1.06.2,2.87-1.17a6.63,6.63,0,0,1,4.88-1c1.13.13.76,1,2.12,2,1.11.76-6.12.29-5.28,1.58.38.59,2.44,1.23,4.48,1.23,3.86,0,5.15-2.85,5.86-2.85,1.65,0-.05-.55,1-.55l4.55-.11a1.49,1.49,0,0,1,.46.1A1.41,1.41,0,0,0,69.92,53.56Zm-7.37.37Z"/><path class="cls-11" d="M63.8,53.93l-1,1.17a3.6,3.6,0,0,1,2-.4,20.13,20.13,0,0,0,4.92-.79Z"/><path class="cls-4" d="M63.23,53.3c-.39-.55-.36-.66-.72-.58,0,0,0,.14,0,.15s-.16-.26-.18-.25,0,.3,0,.31-.09-.11-.13-.1,0,.42-.05.43-.14-.38-.17-.37,0,.29,0,.29-.08-.27-.15-.23c-.24.12,0-.08,0-.06a1.31,1.31,0,0,0-.82.94c-.21.54-.19.19-.42.27,0,0,.27.42-1.15.08a1.5,1.5,0,0,0-.54,0,5.07,5.07,0,0,0-.78,0,2.22,2.22,0,0,1,.37.09,2.43,2.43,0,0,0-.64.1c.17,0,.17.1,0,.15a5.75,5.75,0,0,0-.66.31s.28-.07.57-.12c-.06,0-.71.31-1,.47l.41-.08a2.15,2.15,0,0,0-.36.3c.46-.19.88-.3.75-.21a1.5,1.5,0,0,0-.8,1.12,3,3,0,0,1,1-.6s-.54.69-.48,1a1.34,1.34,0,0,1,.63-.62,1,1,0,0,0-.35.81c.17-.28.3-.41.39-.38s-.12.22,0,.33.3-.37.32-.32a3.14,3.14,0,0,0,3.16-.13l.74-.59.19-.15.13-.1.13-.1.15-.13.15-.11c.16-.14.46-.36.6-.48s-.1-.1-.07-.12.34.2.35.19-.21-.16-.2-.17.34.16.35.14-.34-.23-.32-.25l.27.12s-.15-.17-.13-.18.43.15.45.13-.35-.25-.34-.27a1.66,1.66,0,0,0,.28.05s-.19-.2-.18-.22.18,0,.19,0-.05-.07-.12-.14.22.09.21.07C63.93,53.82,63.58,53.79,63.23,53.3Z"/><circle class="cls-10" cx="59.6" cy="52.83" r="1.78"/><circle class="cls-12" cx="59.6" cy="52.85" r="1.36"/><circle class="cls-10" cx="59.6" cy="52.85" r="1.17"/><circle class="cls-13" cx="59.6" cy="52.85" r="0.86"/><circle class="cls-10" cx="59.73" cy="52.81" r="0.66"/><path class="cls-14" d="M64,53.74s1.19-.63,1.46-.75,0-.29-.13-.58a21.81,21.81,0,0,1,2.26.5,10.92,10.92,0,0,0,1.91.62l-3.3.06c-.43,0-1.91.23-2.07.25S63.87,53.81,64,53.74Z"/><path class="cls-15" d="M65.11,51.69s4.44.83,4.72,1.92a.21.21,0,0,1,0,.08s-.11-.06-.14-.11a15.33,15.33,0,0,0-4-.81C65.28,52.63,64.9,51.64,65.11,51.69Z"/><path class="cls-16" d="M52.12,100.78,46.81,87.29l-1,1s5.14,12.23,5.43,12.85A4,4,0,0,1,52.12,100.78Z"/><path class="cls-16" d="M52.3,101.14l-.07-.14a3.4,3.4,0,0,0-.93.35,8.36,8.36,0,0,1,.38,1.26,3.57,3.57,0,0,1,1.3-.51Z"/><path class="cls-16" d="M52.24,104c.09.18.12.16.07.34-.09.34.35.08.49,0a1.6,1.6,0,0,1,.72,0c.29,0,.73-.22.7-.3a2.8,2.8,0,0,0-.55-.69A2.91,2.91,0,0,0,52.24,104Z"/><path class="cls-16" d="M52.17,103.75a3.09,3.09,0,0,1,1.36-.66,8.76,8.76,0,0,0-.46-.8,3.41,3.41,0,0,0-1.34.5C51.77,102.87,52.11,103.64,52.17,103.75Z"/><path class="cls-17" d="M50.64,58.77a19.64,19.64,0,0,1-2.94-.48c-1-.29-2.39-.53-4.91,2.22s-4.07,5.87-6.16,13.65A5.92,5.92,0,0,0,37,77.7a23.93,23.93,0,0,0,.81,7.19,17.92,17.92,0,0,0,2,4.79s.49-.31.66-2.23.32-1.94.32-1.94.11.64.2,2.12a3.64,3.64,0,0,0,1.73,2.94c.11.07.3-1.25.3-1.25.32,2.28,2,2.16,2.09,2.38,0,0,3.88-10.07,4-11.32.27-3.26-1.44-4.38-.79-7.92a32.85,32.85,0,0,1,2.87-7.89c1.17-2,1.62-2.77,1.65-4.3S51.76,58.93,50.64,58.77Z"/><g class="cls-18"><path class="cls-19" d="M65.34,61.93a1.29,1.29,0,1,1-2.5-.66l-.09,0a1.29,1.29,0,0,1-2.51-.62,1.39,1.39,0,0,0,1.64-1l-.08,0A1.3,1.3,0,0,1,59.29,59l-.08,0a1.3,1.3,0,0,1-2.51-.66l-.08,0a1.3,1.3,0,0,1-2.51-.66l-.09,0a1.29,1.29,0,1,1-2.5-.66l-.09,0a1.29,1.29,0,1,1-2.5-.66l-.09,0a1.29,1.29,0,1,1-2.5-.66l-.09,0a1.3,1.3,0,0,1-2.51-.66l-.08,0a1.3,1.3,0,0,1-2.51-.66l-.08,0a1.3,1.3,0,0,1-2.51-.66l-.08,0A1.3,1.3,0,0,1,36,52.83l-.08,0a1.3,1.3,0,0,1-2.51-.66l-.08,0a1.3,1.3,0,1,1-2.51-.65l-.08,0a1.38,1.38,0,0,0,2.54,1,1.4,1.4,0,0,0,1,1.33,1.38,1.38,0,0,0,1,1.64,1.3,1.3,0,0,1-2.5-.7l-.08,0a1.3,1.3,0,0,1-2.51-.66L30,54a1.3,1.3,0,0,1-2.51-.66l-.08,0a1.38,1.38,0,0,0,2.54,1,1.39,1.39,0,0,0,1,1.33,1.4,1.4,0,0,0,1,1.64,1.29,1.29,0,0,1-2.49-.7l-.08,0a1.31,1.31,0,0,1-1.59.92A1.29,1.29,0,0,1,26.84,56l-.08,0a1.38,1.38,0,0,0,2.54,1,1.39,1.39,0,0,0,1,1.33,1.4,1.4,0,0,0,.95,1.64,1.29,1.29,0,0,1-2.49-.7l-.08,0a1.31,1.31,0,0,1-1.59.92,1.29,1.29,0,0,1-.92-1.58l-.08,0a1.38,1.38,0,0,0,2.54,1,1.39,1.39,0,0,0,1,1.33,1.4,1.4,0,0,0,.95,1.64,1.29,1.29,0,0,1-2.49-.7l-.08,0a1.31,1.31,0,0,1-1.59.92,1.29,1.29,0,0,1-.92-1.58l-.09,0a1.38,1.38,0,0,0,2.55,1,1.39,1.39,0,0,0,1,1.33,1.4,1.4,0,0,0,.95,1.64,1.29,1.29,0,0,1-2.49-.7l-.09,0a1.29,1.29,0,0,1-2.5-.66l-.09,0a1.38,1.38,0,0,0,2.55,1,1.38,1.38,0,0,0,1,1.33,1.39,1.39,0,0,0,2.56,1,1.38,1.38,0,0,0,2.59.68,1.38,1.38,0,0,0,2.59.68,1.38,1.38,0,0,0,2.59.68,1.38,1.38,0,0,0,2.59.68,1.38,1.38,0,0,0,2.59.68,1.38,1.38,0,0,0,2.59.68,1.38,1.38,0,0,0,2.59.68,1.38,1.38,0,0,0,2.59.68,1.38,1.38,0,0,0,2.59.68,1.38,1.38,0,0,0,2.59.68,1.38,1.38,0,0,0,2.72.36l-.08,0a1.29,1.29,0,0,1-1.58.92,1.3,1.3,0,0,1-.93-1.58l-.08,0a1.3,1.3,0,0,1-2.52-.62,1.38,1.38,0,0,0,1.63-1,1.38,1.38,0,0,0,1.52-.68,1.4,1.4,0,0,0,1,1.35,1.38,1.38,0,0,0,1.68-1l-.08,0a1.29,1.29,0,0,1-1.58.92A1.3,1.3,0,0,1,57.52,71l-.08,0a1.3,1.3,0,0,1-2.52-.62,1.4,1.4,0,0,0,1.64-1,1.36,1.36,0,0,0,1.51-.67,1.4,1.4,0,0,0,1,1.35,1.38,1.38,0,0,0,1.68-1l-.08,0a1.3,1.3,0,0,1-2.51-.66l-.08,0a1.3,1.3,0,0,1-2.52-.62,1.4,1.4,0,0,0,1.64-1,1.36,1.36,0,0,0,1.51-.67,1.4,1.4,0,0,0,1,1.35,1.38,1.38,0,0,0,1.68-1l-.08,0a1.3,1.3,0,0,1-2.51-.66l-.08,0a1.3,1.3,0,0,1-2.52-.62,1.4,1.4,0,0,0,1.64-1,1.38,1.38,0,0,0,1.52-.67,1.38,1.38,0,0,0,2.71.36l-.08,0a1.3,1.3,0,0,1-2.51-.66l-.08,0A1.29,1.29,0,0,1,57,62.54a1.39,1.39,0,0,0,1.63-1,1.38,1.38,0,0,0,1.52-.67,1.38,1.38,0,0,0,2.59.68,1.38,1.38,0,0,0,2.72.36ZM55.05,59.27a1.38,1.38,0,0,0,1.52-.68,1.39,1.39,0,0,0,1,1.33,1.3,1.3,0,0,1-2.51-.65ZM31.61,64.19a1.39,1.39,0,0,0,1.51-.68,1.39,1.39,0,0,0,1,1.33,1.29,1.29,0,0,1-2.5-.65Zm.86,1.61a1.28,1.28,0,0,1-1.57.88A1.3,1.3,0,0,1,30,65.14a1.4,1.4,0,0,0,1.52-.67A1.38,1.38,0,0,0,32.47,65.8ZM33,59a1.36,1.36,0,0,0,1.51-.67,1.39,1.39,0,0,0,1,1.33A1.29,1.29,0,0,1,33,59Zm-1-1.63a1.38,1.38,0,0,0,1.52-.68,1.36,1.36,0,0,0,1,1.33A1.3,1.3,0,0,1,32,57.37Zm4.23-.28a1.36,1.36,0,0,0,1.51-.67,1.39,1.39,0,0,0,1,1.33,1.29,1.29,0,0,1-2.5-.66Zm-1-1.63a1.38,1.38,0,0,0,1.52-.68,1.37,1.37,0,0,0,1,1.33,1.3,1.3,0,0,1-2.51-.65Zm-.4,6.82a1.38,1.38,0,0,0,1.51-.68,1.39,1.39,0,0,0,1,1.33,1.29,1.29,0,0,1-2.5-.65Zm.87,1.61a1.3,1.3,0,0,1-2.51-.66,1.4,1.4,0,0,0,1.52-.67A1.38,1.38,0,0,0,35.75,63.89Zm12.76-.8A1.39,1.39,0,0,0,50,62.41a1.38,1.38,0,0,0,1,1.33,1.3,1.3,0,0,1-2.51-.65Zm.87,1.61a1.29,1.29,0,0,1-2.5-.66,1.38,1.38,0,0,0,1.51-.67A1.39,1.39,0,0,0,49.38,64.7ZM48.49,63a1.28,1.28,0,0,1-.93-1.54,1.38,1.38,0,0,0,1.51-.67,1.39,1.39,0,0,0,1,1.33A1.29,1.29,0,0,1,48.49,63Zm-.06.07a1.3,1.3,0,0,1-2.51-.65,1.39,1.39,0,0,0,1.52-.68A1.38,1.38,0,0,0,48.43,63.06Zm-1.64,1a1.29,1.29,0,0,1-2.5-.66,1.38,1.38,0,0,0,1.51-.67A1.39,1.39,0,0,0,46.79,64Zm-.89-1.71A1.28,1.28,0,0,1,45,60.77a1.38,1.38,0,0,0,1.51-.67,1.39,1.39,0,0,0,1,1.33A1.29,1.29,0,0,1,45.9,62.31Zm-.07.07a1.29,1.29,0,0,1-1.57.89,1.31,1.31,0,0,1-.93-1.54,1.39,1.39,0,0,0,1.52-.68A1.38,1.38,0,0,0,45.83,62.38Zm-1.63,1a1.3,1.3,0,0,1-2.51-.66A1.39,1.39,0,0,0,43.21,62,1.39,1.39,0,0,0,44.2,63.34Zm-.89-1.71a1.28,1.28,0,0,1-.93-1.54,1.38,1.38,0,0,0,1.51-.67,1.39,1.39,0,0,0,1,1.33A1.3,1.3,0,0,1,43.31,61.63Zm-.07.07a1.29,1.29,0,0,1-2.5-.65,1.38,1.38,0,0,0,1.51-.68A1.4,1.4,0,0,0,43.24,61.7Zm-1.63,1A1.3,1.3,0,0,1,39.1,62a1.39,1.39,0,0,0,1.52-.67A1.39,1.39,0,0,0,41.61,62.66ZM40.72,61a1.3,1.3,0,0,1-.94-1.54,1.39,1.39,0,0,0,1.52-.67,1.39,1.39,0,0,0,1,1.33A1.3,1.3,0,0,1,40.72,61Zm-.07.07a1.29,1.29,0,0,1-2.5-.65,1.38,1.38,0,0,0,1.51-.68A1.39,1.39,0,0,0,40.65,61ZM39,62a1.3,1.3,0,0,1-2.51-.66A1.39,1.39,0,0,0,38,60.65,1.39,1.39,0,0,0,39,62Zm-.89-1.71a1.3,1.3,0,0,1-.94-1.54,1.39,1.39,0,0,0,1.52-.67,1.39,1.39,0,0,0,1,1.33A1.3,1.3,0,0,1,38.13,60.27Zm-.07.07a1.29,1.29,0,0,1-2.5-.66A1.36,1.36,0,0,0,37.07,59,1.39,1.39,0,0,0,38.06,60.34Zm-1.63,1a1.3,1.3,0,0,1-2.51-.66A1.39,1.39,0,0,0,35.44,60,1.38,1.38,0,0,0,36.43,61.3Zm-.6,2.61a1.39,1.39,0,0,0,1.52-.67,1.38,1.38,0,0,0,1,1.33,1.3,1.3,0,0,1-2.51-.66ZM37.47,63A1.38,1.38,0,0,0,39,62.28a1.39,1.39,0,0,0,1,1.33,1.29,1.29,0,0,1-2.5-.65Zm1,1.63a1.39,1.39,0,0,0,1.52-.67,1.39,1.39,0,0,0,1,1.33,1.3,1.3,0,0,1-2.51-.66Zm1.64-1A1.37,1.37,0,0,0,41.57,63a1.4,1.4,0,0,0,1,1.33,1.29,1.29,0,0,1-2.5-.65ZM41,65.27a1.39,1.39,0,0,0,1.52-.67,1.39,1.39,0,0,0,1,1.33A1.3,1.3,0,0,1,41,65.27Zm1.64-1a1.39,1.39,0,0,0,1.52-.68,1.38,1.38,0,0,0,1,1.33,1.29,1.29,0,0,1-2.5-.65Zm1,1.63a1.38,1.38,0,0,0,1.51-.67,1.39,1.39,0,0,0,1,1.33,1.29,1.29,0,0,1-2.5-.66Zm1.63-1a1.39,1.39,0,0,0,1.52-.68,1.37,1.37,0,0,0,1,1.33,1.29,1.29,0,0,1-2.5-.65Zm1,1.63A1.38,1.38,0,0,0,47.71,66a1.39,1.39,0,0,0,1,1.33,1.29,1.29,0,0,1-2.5-.66Zm1.63-.95A1.39,1.39,0,0,0,49.35,65a1.37,1.37,0,0,0,1,1.33,1.3,1.3,0,0,1-2.51-.65Zm1,1.63a1.38,1.38,0,0,0,1.51-.67,1.39,1.39,0,0,0,1,1.33,1.29,1.29,0,0,1-2.5-.66Zm1.63-1a1.38,1.38,0,0,0,1.52-.68,1.36,1.36,0,0,0,1,1.33,1.3,1.3,0,0,1-2.51-.65Zm0-.09a1.3,1.3,0,0,1-.93-1.55A1.38,1.38,0,0,0,51,64.05a1.39,1.39,0,0,0,1,1.33A1.3,1.3,0,0,1,50.4,66.27Zm.7-2.5a1.38,1.38,0,0,0,1.52-.68,1.37,1.37,0,0,0,1,1.33,1.3,1.3,0,0,1-2.51-.65Zm0-.1a1.28,1.28,0,0,1-.93-1.54,1.38,1.38,0,0,0,1.51-.67,1.39,1.39,0,0,0,1,1.33A1.29,1.29,0,0,1,51.08,63.67Zm.7-2.49a1.38,1.38,0,0,0,1.52-.68,1.39,1.39,0,0,0,1,1.33,1.3,1.3,0,0,1-2.51-.65Zm0-.1a1.28,1.28,0,0,1-.93-1.54,1.38,1.38,0,0,0,1.51-.67,1.39,1.39,0,0,0,1,1.33A1.29,1.29,0,0,1,51.76,61.08Zm-.06.07a1.3,1.3,0,0,1-2.51-.65,1.38,1.38,0,0,0,1.52-.68A1.38,1.38,0,0,0,51.7,61.15Zm-2.53-.75a1.28,1.28,0,0,1-.93-1.54,1.38,1.38,0,0,0,1.51-.67,1.39,1.39,0,0,0,1,1.33A1.29,1.29,0,0,1,49.17,60.4Zm-.06.07a1.3,1.3,0,0,1-2.51-.65,1.39,1.39,0,0,0,1.52-.68A1.38,1.38,0,0,0,49.11,60.47Zm-2.53-.75a1.28,1.28,0,0,1-.93-1.54,1.38,1.38,0,0,0,1.51-.67,1.39,1.39,0,0,0,1,1.33A1.3,1.3,0,0,1,46.58,59.72Zm-.06.07A1.3,1.3,0,0,1,44,59.14a1.4,1.4,0,0,0,1.52-.68A1.38,1.38,0,0,0,46.52,59.79ZM44,59a1.29,1.29,0,0,1-.93-1.54,1.38,1.38,0,0,0,1.51-.67,1.39,1.39,0,0,0,1,1.33A1.3,1.3,0,0,1,44,59Zm-.07.07a1.29,1.29,0,0,1-2.5-.65,1.4,1.4,0,0,0,1.52-.68A1.38,1.38,0,0,0,43.92,59.11Zm-2.52-.75a1.29,1.29,0,0,1-.93-1.54A1.38,1.38,0,0,0,42,56.14a1.39,1.39,0,0,0,1,1.34A1.3,1.3,0,0,1,41.4,58.36Zm-.07.07a1.29,1.29,0,0,1-2.5-.66,1.36,1.36,0,0,0,1.51-.67A1.4,1.4,0,0,0,41.33,58.43Zm-2.52-.75a1.3,1.3,0,0,1-.94-1.54,1.38,1.38,0,0,0,1.52-.68,1.37,1.37,0,0,0,1,1.33A1.3,1.3,0,0,1,38.81,57.68Zm-1.7,1a1.3,1.3,0,0,1-2.51-.65,1.38,1.38,0,0,0,1.52-.68A1.36,1.36,0,0,0,37.11,58.7Zm-3.27,1.92A1.3,1.3,0,0,1,31.33,60a1.39,1.39,0,0,0,1.52-.68A1.38,1.38,0,0,0,33.84,60.62Zm-1.55,1a1.36,1.36,0,0,0,1.51-.67,1.39,1.39,0,0,0,1,1.33,1.29,1.29,0,0,1-2.5-.66Zm.87,1.62a1.3,1.3,0,0,1-2.51-.66,1.4,1.4,0,0,0,1.52-.67A1.38,1.38,0,0,0,33.16,63.21Zm-.6,2.61a1.4,1.4,0,0,0,1.52-.67,1.38,1.38,0,0,0,1,1.33,1.3,1.3,0,0,1-2.51-.66Zm1.64-.95a1.37,1.37,0,0,0,1.51-.68,1.39,1.39,0,0,0,1,1.33,1.29,1.29,0,0,1-2.5-.65Zm.95,1.63a1.39,1.39,0,0,0,1.52-.67,1.38,1.38,0,0,0,1,1.33,1.3,1.3,0,0,1-2.51-.66Zm1.64-1a1.37,1.37,0,0,0,1.51-.68,1.39,1.39,0,0,0,1,1.33,1.29,1.29,0,0,1-2.5-.65Zm1,1.63a1.39,1.39,0,0,0,1.52-.67,1.38,1.38,0,0,0,1,1.33,1.3,1.3,0,0,1-2.51-.66Zm1.64-1a1.37,1.37,0,0,0,1.51-.68,1.39,1.39,0,0,0,1,1.33,1.29,1.29,0,0,1-2.5-.65Zm.95,1.63a1.39,1.39,0,0,0,1.52-.67,1.39,1.39,0,0,0,1,1.33,1.3,1.3,0,0,1-2.51-.66Zm1.64-1a1.37,1.37,0,0,0,1.51-.68,1.39,1.39,0,0,0,1,1.33,1.29,1.29,0,0,1-2.5-.65Zm1,1.63a1.39,1.39,0,0,0,1.52-.67,1.39,1.39,0,0,0,1,1.33,1.3,1.3,0,0,1-2.51-.66Zm1.64-1a1.39,1.39,0,0,0,1.52-.68,1.36,1.36,0,0,0,1,1.33,1.29,1.29,0,0,1-2.5-.65Zm1,1.63A1.37,1.37,0,0,0,47,68.55a1.39,1.39,0,0,0,1,1.33,1.29,1.29,0,0,1-2.5-.66Zm1.63-1a1.39,1.39,0,0,0,1.52-.68,1.36,1.36,0,0,0,1,1.33,1.3,1.3,0,0,1-2.51-.65Zm1,1.63a1.37,1.37,0,0,0,1.51-.67,1.39,1.39,0,0,0,1,1.33,1.29,1.29,0,0,1-2.5-.66Zm1.63-1a1.39,1.39,0,0,0,1.52-.68,1.38,1.38,0,0,0,1,1.34A1.3,1.3,0,0,1,49.74,69Zm1,1.64a1.38,1.38,0,0,0,1.51-.68,1.39,1.39,0,0,0,1,1.33,1.29,1.29,0,0,1-2.5-.65Zm1.63-1A1.39,1.39,0,0,0,53.85,69a1.38,1.38,0,0,0,1,1.33,1.3,1.3,0,0,1-2.51-.66Zm0-.09A1.3,1.3,0,0,1,51.38,68a1.36,1.36,0,0,0,1.51-.67,1.39,1.39,0,0,0,1,1.33A1.3,1.3,0,0,1,52.31,69.54ZM53,67a1.38,1.38,0,0,0,1.52-.68,1.36,1.36,0,0,0,1,1.33A1.3,1.3,0,0,1,53,67ZM53,67a1.3,1.3,0,0,1-.93-1.55,1.38,1.38,0,0,0,1.51-.67,1.39,1.39,0,0,0,1,1.33A1.3,1.3,0,0,1,53,67Zm.7-2.5a1.38,1.38,0,0,0,1.52-.68,1.37,1.37,0,0,0,1,1.33,1.3,1.3,0,0,1-2.51-.65Zm0-.09a1.3,1.3,0,0,1-.93-1.55,1.38,1.38,0,0,0,1.51-.67,1.39,1.39,0,0,0,1,1.33A1.3,1.3,0,0,1,53.67,64.36Zm.7-2.5a1.38,1.38,0,0,0,1.52-.68,1.38,1.38,0,0,0,1,1.33,1.3,1.3,0,0,1-2.51-.65Zm0-.1a1.28,1.28,0,0,1-.93-1.54,1.38,1.38,0,0,0,1.51-.67,1.39,1.39,0,0,0,1,1.33A1.28,1.28,0,0,1,54.35,61.76Zm-1.89-3.17A1.38,1.38,0,0,0,54,57.91a1.39,1.39,0,0,0,1,1.33,1.3,1.3,0,0,1-2.51-.65Zm-2.59-.68a1.4,1.4,0,0,0,1.52-.68,1.38,1.38,0,0,0,1,1.33,1.3,1.3,0,0,1-2.51-.65Zm-2.59-.68a1.4,1.4,0,0,0,1.52-.68,1.38,1.38,0,0,0,1,1.33,1.3,1.3,0,0,1-2.51-.65Zm-2.59-.69a1.38,1.38,0,0,0,1.52-.67,1.38,1.38,0,0,0,1,1.33,1.3,1.3,0,0,1-2.51-.66Zm-2.59-.68a1.38,1.38,0,0,0,1.52-.67,1.38,1.38,0,0,0,1,1.33,1.29,1.29,0,0,1-1.57.89A1.31,1.31,0,0,1,42.1,55.86Zm-2.59-.68A1.4,1.4,0,0,0,41,54.51a1.38,1.38,0,0,0,1,1.33,1.29,1.29,0,0,1-2.5-.66Zm-2.59-.68a1.38,1.38,0,0,0,1.51-.67,1.4,1.4,0,0,0,1,1.33,1.29,1.29,0,0,1-2.5-.66Zm-2.59-.68a1.38,1.38,0,0,0,1.51-.67,1.39,1.39,0,0,0,1,1.33,1.29,1.29,0,0,1-2.5-.66Zm-.68,2.59a1.38,1.38,0,0,0,1.51-.67,1.39,1.39,0,0,0,1,1.33,1.29,1.29,0,0,1-2.5-.66Zm-2.59-.68a1.38,1.38,0,0,0,1.51-.67,1.39,1.39,0,0,0,1,1.33,1.29,1.29,0,0,1-2.5-.66Zm-.68,2.59a1.38,1.38,0,0,0,1.51-.67,1.39,1.39,0,0,0,1,1.33,1.29,1.29,0,0,1-2.5-.66Zm-.68,2.59a1.37,1.37,0,0,0,1.51-.67,1.39,1.39,0,0,0,1,1.33,1.29,1.29,0,0,1-2.5-.66ZM29,63.51a1.39,1.39,0,0,0,1.51-.68,1.39,1.39,0,0,0,1,1.33,1.29,1.29,0,0,1-2.5-.65Zm.25,4.13a1.31,1.31,0,0,1-.94-1.54,1.38,1.38,0,0,0,1.52-.68,1.39,1.39,0,0,0,1,1.33A1.3,1.3,0,0,1,29.27,67.64Zm2.59.68a1.29,1.29,0,0,1-.93-1.54,1.38,1.38,0,0,0,1.51-.68,1.39,1.39,0,0,0,1,1.33A1.3,1.3,0,0,1,31.86,68.32Zm2.59.68a1.29,1.29,0,0,1-.93-1.54A1.37,1.37,0,0,0,35,66.78a1.39,1.39,0,0,0,1,1.33A1.3,1.3,0,0,1,34.45,69Zm2.59.68a1.29,1.29,0,0,1-.93-1.54,1.37,1.37,0,0,0,1.51-.68,1.38,1.38,0,0,0,1,1.33A1.3,1.3,0,0,1,37,69.68Zm2.59.68a1.29,1.29,0,0,1-.93-1.54,1.37,1.37,0,0,0,1.51-.68,1.38,1.38,0,0,0,1,1.33A1.3,1.3,0,0,1,39.63,70.36Zm2.59.68a1.29,1.29,0,0,1-.93-1.54,1.37,1.37,0,0,0,1.51-.68,1.37,1.37,0,0,0,1,1.33A1.29,1.29,0,0,1,42.22,71Zm2.59.68a1.29,1.29,0,0,1-.93-1.54,1.39,1.39,0,0,0,1.52-.68,1.36,1.36,0,0,0,1,1.33A1.29,1.29,0,0,1,44.81,71.72Zm2.59.68a1.3,1.3,0,0,1-.93-1.54A1.4,1.4,0,0,0,48,70.19a1.38,1.38,0,0,0,1,1.33A1.29,1.29,0,0,1,47.4,72.4Zm2.59.68a1.3,1.3,0,0,1-.93-1.54,1.4,1.4,0,0,0,1.52-.67,1.38,1.38,0,0,0,1,1.33A1.31,1.31,0,0,1,50,73.08Zm2.59.68a1.3,1.3,0,0,1-.93-1.54,1.4,1.4,0,0,0,1.52-.67,1.38,1.38,0,0,0,1,1.33A1.31,1.31,0,0,1,52.58,73.76Zm3.21-1.84a1.29,1.29,0,0,1-2.5-.65,1.38,1.38,0,0,0,1.51-.68A1.39,1.39,0,0,0,55.79,71.92Zm.68-2.59a1.29,1.29,0,0,1-2.5-.66A1.36,1.36,0,0,0,55.48,68,1.39,1.39,0,0,0,56.47,69.33Zm.68-2.59a1.29,1.29,0,0,1-2.5-.66,1.36,1.36,0,0,0,1.51-.67A1.39,1.39,0,0,0,57.15,66.74Zm.68-2.59a1.29,1.29,0,0,1-2.5-.66,1.38,1.38,0,0,0,1.51-.67A1.4,1.4,0,0,0,57.83,64.15Zm-.89-1.7A1.3,1.3,0,0,1,56,60.9a1.4,1.4,0,0,0,1.52-.67,1.38,1.38,0,0,0,1,1.33A1.3,1.3,0,0,1,56.94,62.45Zm1.64-1A1.29,1.29,0,0,1,57.65,60a1.38,1.38,0,0,0,1.51-.68,1.39,1.39,0,0,0,1,1.33A1.3,1.3,0,0,1,58.58,61.49Z"/><g class="cls-20"><path class="cls-21" d="M34.05,89.49a51,51,0,0,1,.52-6,139.63,139.63,0,0,1,3.64-17.71l.17.07a139.26,139.26,0,0,0-3.62,17.63,53.3,53.3,0,0,0-.52,6Z"/><path class="cls-22" d="M35.44,89.75a51.15,51.15,0,0,1,.52-6A138.51,138.51,0,0,1,39.6,66l.17.07a142.05,142.05,0,0,0-3.63,17.64,51.15,51.15,0,0,0-.51,6Z"/><path class="cls-23" d="M36.83,90a52.13,52.13,0,0,1,.51-6A140.48,140.48,0,0,1,41,66.3l.17.07A140.12,140.12,0,0,0,37.53,84,51.32,51.32,0,0,0,37,90Z"/><path class="cls-24" d="M38.22,90.29a52,52,0,0,1,.51-6,139.63,139.63,0,0,1,3.64-17.71l.18.07a138,138,0,0,0-3.63,17.63,51.32,51.32,0,0,0-.51,6Z"/><path class="cls-25" d="M39.6,90.55a54.14,54.14,0,0,1,.52-6,140.33,140.33,0,0,1,3.64-17.71l.18.07a138.35,138.35,0,0,0-3.63,17.64,53.12,53.12,0,0,0-.52,6Z"/><path class="cls-26" d="M41,90.82a51,51,0,0,1,.52-6A140,140,0,0,1,45.15,67.1l.17.07A139.61,139.61,0,0,0,41.7,84.8a53.3,53.3,0,0,0-.52,6Z"/><path class="cls-27" d="M42.38,91.09a51,51,0,0,1,.52-6,137.83,137.83,0,0,1,3.64-17.71l.17.07a141.63,141.63,0,0,0-3.63,17.63,51.32,51.32,0,0,0-.51,6Z"/><path class="cls-28" d="M43.77,91.35a52.13,52.13,0,0,1,.51-6,140.48,140.48,0,0,1,3.65-17.71l.17.07a140.48,140.48,0,0,0-3.63,17.63,51.38,51.38,0,0,0-.51,6Z"/><path class="cls-29" d="M45.15,91.62a54,54,0,0,1,.52-6A140,140,0,0,1,49.31,67.9l.18.07A138.29,138.29,0,0,0,45.86,85.6a51.32,51.32,0,0,0-.51,6Z"/><path class="cls-30" d="M46.54,91.89a54,54,0,0,1,.52-6A139.63,139.63,0,0,1,50.7,68.17l.18.07a138,138,0,0,0-3.63,17.63,53.3,53.3,0,0,0-.52,6Z"/><path class="cls-31" d="M47.93,92.15a51.15,51.15,0,0,1,.52-6,140,140,0,0,1,3.64-17.71l.17.07a140,140,0,0,0-3.62,17.63,50.41,50.41,0,0,0-.52,6Z"/><path class="cls-32" d="M49.32,92.42a51,51,0,0,1,.52-6A138.17,138.17,0,0,1,53.48,68.7l.17.07A140.12,140.12,0,0,0,50,86.4a51.32,51.32,0,0,0-.51,6Z"/></g></g><path class="cls-16" d="M50,105.51a1.45,1.45,0,0,1,0-.44c.06-.09-.6-.24-1.07-.18s-.53.53-.54.9.14.18.25,0S49,105.14,50,105.51Z"/><path class="cls-16" d="M61.17,104.58c-.21-.37-.45,0-.43-.39s-.55-.39-1-.25a5.91,5.91,0,0,1-2.15.52,11.89,11.89,0,0,1-3-.21,1.78,1.78,0,0,0-.29-.12c-.57.6-1.26.21-1.46.32a5.81,5.81,0,0,1-2.15.57c-.73-.08-.37.34-.49.58s0,.46.22.46.84-.18.94-.18.34.13.51-.13.93-.32.94-.31.51,0,.68,0l.11.13c.3.2,1,.26,1.31.51s.94.17,1.25.3a.73.73,0,0,0,.54,0,.82.82,0,0,0,.19,0c.14,0,.21,0,.13-.34s-.12-.53-.45-.54-.55,0-.7-.11.73,0,1.25,0a3.67,3.67,0,0,0,1.07-.23c.41-.08,1.09.13,1.21-.12a.5.5,0,0,1,.68-.2C60.33,105,61.38,105,61.17,104.58Z"/><path class="cls-16" d="M60.94,103.9s0,.38.11.41a5.44,5.44,0,0,1,1,.42c.12.12.24.11,0-.2A1.56,1.56,0,0,0,60.94,103.9Z"/><path class="cls-16" d="M57,105.63s.14.44.27.49a4,4,0,0,1,.82.47c.1.13.21.15,0-.19A1.74,1.74,0,0,0,57,105.63Z"/><path class="cls-33" d="M60.41,52.89c-.94-.13-1.57.43-1.57,0a.79.79,0,1,1,1.57,0Z"/><path class="cls-4" d="M60.27,52.42a.94.94,0,0,0-.65-.19c-.17,0-.24.09-.34,0s.25-.22.53-.13S60.27,52.42,60.27,52.42Z"/><path class="cls-13" d="M71.52,88.93c.47,0,.52-.53.52-1,0-1.85,0-6.64,0-8.49,0-.46.08-.49,1-.49,1.24,0,1.17,0,1.17.49v9.16a2.49,2.49,0,0,1-2.73,2.69,2.56,2.56,0,0,1-2.74-2.69v-.67c0-.47,0-.49,1.11-.49s1.15,0,1.15.49S71.08,88.93,71.52,88.93Z"/><path class="cls-13" d="M78.28,91.3a2.65,2.65,0,0,1-2.85-2.69v-7A2.65,2.65,0,0,1,78.28,79a2.58,2.58,0,0,1,2.85,2.68v7A2.58,2.58,0,0,1,78.28,91.3Zm0-10c-.49,0-.41.52-.41,1v5.63c0,.46-.08,1,.41,1s.41-.53.41-1c0-1.85,0-3.78,0-5.63C78.69,81.85,78.75,81.33,78.28,81.33Z"/><path class="cls-13" d="M85.58,82.75v-.94c0-.1,0-.48-.4-.48s-.41.52-.41,1v5.63c0,.46,0,1,.41,1s.4-.4.4-.48v-.74c0-.31.1-.27,1.24-.27,1,0,1.07-.06,1.07.37v.8a2.47,2.47,0,0,1-2.71,2.69,2.65,2.65,0,0,1-2.85-2.69v-7A2.64,2.64,0,0,1,85.18,79a2.47,2.47,0,0,1,2.71,2.68v1.15c0,.15,0,.13-1.23.13C85.91,82.92,85.58,83,85.58,82.75Z"/><path class="cls-13" d="M91.86,91.3A2.65,2.65,0,0,1,89,88.61v-7A2.64,2.64,0,0,1,91.86,79a2.58,2.58,0,0,1,2.85,2.68v7A2.58,2.58,0,0,1,91.86,91.3Zm0-10c-.49,0-.41.52-.41,1v5.63c0,.46-.08,1,.41,1s.41-.53.41-1c0-1.85,0-3.78,0-5.63C92.27,81.85,92.33,81.33,91.86,81.33Z"/><path class="cls-13" d="M97.16,81.28a3.17,3.17,0,0,0-.6,0H96c-.24,0-.29-.15-.29-1.16s0-1.13.23-1.13h5.26c.19,0,.21.11.21,1.05,0,1.14,0,1.24-.2,1.24h-.7a3.29,3.29,0,0,0-.62,0c-.14.12-.11.39-.11.61v9.24c0,.14,0,.17-.12.17H97.52c-.19,0-.25,0-.25-.17V81.89C97.27,81.67,97.3,81.4,97.16,81.28Z"/><path class="cls-13" d="M105.16,91.3a2.65,2.65,0,0,1-2.85-2.69v-7A2.64,2.64,0,0,1,105.16,79,2.58,2.58,0,0,1,108,81.64v7A2.58,2.58,0,0,1,105.16,91.3Zm0-10c-.49,0-.41.52-.41,1v5.63c0,.46-.08,1,.41,1s.41-.53.41-1c0-1.85,0-3.78,0-5.63C105.57,81.85,105.63,81.33,105.16,81.33Z"/><path class="cls-13" d="M112.46,82.75v-.94c0-.1,0-.48-.41-.48s-.4.52-.4,1v5.63c0,.46,0,1,.4,1s.41-.4.41-.48v-.74c0-.31.1-.27,1.24-.27,1,0,1.07-.06,1.07.37v.8a2.48,2.48,0,0,1-2.72,2.69,2.65,2.65,0,0,1-2.85-2.69v-7A2.65,2.65,0,0,1,112.05,79a2.48,2.48,0,0,1,2.72,2.68v1.15c0,.15,0,.13-1.24.13C112.79,82.92,112.46,83,112.46,82.75Z"/><path class="cls-13" d="M118.74,91.3a2.65,2.65,0,0,1-2.85-2.69v-7A2.64,2.64,0,0,1,118.74,79a2.58,2.58,0,0,1,2.84,2.68v7A2.58,2.58,0,0,1,118.74,91.3Zm0-10c-.49,0-.41.52-.41,1v5.63c0,.46-.08,1,.41,1s.4-.53.4-1c0-1.85,0-3.78,0-5.63C119.14,81.85,119.21,81.33,118.74,81.33Z"/><path class="cls-34" d="M88.93,76V70.45c0-.11,0-.14,0-.2s.09-.06.18-.06h1.77c.1,0,.1.06.1.39s0,.44-.13.44h-.82a.36.36,0,0,0-.19,0c-.06.06,0,.13,0,.24v1.16c0,.08,0,.17,0,.22a.3.3,0,0,0,.19,0h.47c.12,0,.13.05.13.42s0,.4-.13.4-.3,0-.45,0a.42.42,0,0,0-.21,0c-.07,0-.06.16-.06.27V76c0,.14-.06.13-.49.13S88.93,76.1,88.93,76Z"/><path class="cls-34" d="M94.82,74.92a1.12,1.12,0,0,1-1.23,1.18,1.17,1.17,0,0,1-1.23-1.17v-4.6c0-.13.06-.14.47-.14s.44,0,.44.14v4.4c0,.23,0,.48.32.48s.32-.24.32-.48V70.32c0-.12,0-.13.42-.13s.49,0,.49.12Z"/><path class="cls-34" d="M97.39,72.88c-.06,0-.06.18-.06.29V76c0,.13,0,.15-.46.15s-.43,0-.43-.14V70.31c0-.12,0-.12.39-.12s.41,0,.47.27c.18.69.43,1.59.69,2.49,0,.08.05.22.1.22s.06-.16.06-.25V70.34c0-.14,0-.15.45-.15s.44,0,.44.14v5.53c0,.22,0,.24-.43.24-.22,0-.31,0-.37-.23-.28-1-.38-1.42-.67-2.49C97.52,73.2,97.45,72.88,97.39,72.88Z"/><path class="cls-34" d="M102.81,75.74a1.34,1.34,0,0,1-1,.36H101c-.11,0-.17,0-.21-.06a.38.38,0,0,1,0-.2V70.45a.4.4,0,0,1,0-.21c0-.06.11,0,.22,0h.86a1.46,1.46,0,0,1,1,.34,1.23,1.23,0,0,1,.35.93v3.36A1.25,1.25,0,0,1,102.81,75.74Zm-.66-4.56a.3.3,0,0,0-.27-.11c-.14,0-.21,0-.23,0a.16.16,0,0,0,0,.12V75a.23.23,0,0,0,0,.17s.11,0,.19,0a.39.39,0,0,0,.32-.15.64.64,0,0,0,.09-.41v-3A.64.64,0,0,0,102.15,71.18Z"/><path class="cls-34" d="M105,76.1c-.13,0-.42,0-.41-.08.31-2.2.53-3.68.81-5.71,0-.12.25-.13.44-.13s.44,0,.45.15c.33,2.16.52,3.48.86,5.69,0,.09-.24.08-.47.08s-.4,0-.42-.1c-.07-.47-.1-.79-.17-1.26,0-.08-.11-.07-.24-.07s-.25,0-.26.07c0,.47-.08.79-.12,1.28C105.42,76.11,105.23,76.1,105,76.1ZM105.8,74c.11,0,.19,0,.18-.06,0-.62-.06-1-.11-1.65,0,0,0-.23-.07-.23s-.06.22-.06.25c0,.66-.08,1.08-.11,1.62C105.62,74,105.67,74,105.8,74Z"/><path class="cls-34" d="M110,71.41a.35.35,0,0,0-.32-.35c-.26,0-.32.26-.32.48v3.18c0,.24.06.49.32.49a.32.32,0,0,0,.32-.34v-.44c0-.12.07-.11.44-.11s.43,0,.43.16v.44a1.09,1.09,0,0,1-1.19,1.18,1.16,1.16,0,0,1-1.22-1.18V71.38a1.16,1.16,0,0,1,1.22-1.19,1.13,1.13,0,0,1,1.19,1.19v.45c0,.09-.06.11-.45.11s-.42,0-.42-.09Z"/><path class="cls-34" d="M112.84,76.09c-.42,0-.43,0-.43-.12V70.33c0-.13,0-.13.43-.13s.47,0,.47.14V76C113.31,76.08,113.3,76.09,112.84,76.09Z"/><path class="cls-34" d="M116.13,76.1a1.15,1.15,0,0,1-1.22-1.22V71.4a1.23,1.23,0,0,1,2.46,0v3.48A1.13,1.13,0,0,1,116.13,76.1Zm0-5c-.25,0-.32.27-.32.5V74.7c0,.24,0,.51.32.51s.32-.27.32-.51V71.56C116.45,71.33,116.38,71.06,116.13,71.06Z"/><path class="cls-34" d="M120,72.88c-.06,0-.06.18-.06.29V76c0,.13,0,.15-.46.15s-.42,0-.42-.14V70.31c0-.12,0-.12.38-.12s.41,0,.48.27c.17.69.42,1.59.68,2.49,0,.08,0,.22.1.22s.06-.16.06-.25V70.34c0-.14,0-.15.45-.15s.44,0,.44.14v5.53c0,.22,0,.24-.42.24-.22,0-.32,0-.37-.23-.28-1-.39-1.42-.68-2.49C120.09,73.2,120,72.88,120,72.88Z"/><path class="cls-34" d="M95.64,99.78V94.44a.23.23,0,0,1,.06-.19c0-.07.11-.07.19-.07h1.75c.11,0,.11.07.11.4s0,.43-.11.43h-.85c-.07,0-.17,0-.19,0s0,.06,0,.17v1.11c0,.08,0,.17,0,.22a.31.31,0,0,0,.19,0h.41c.1,0,.11,0,.11.43s0,.4-.11.4h-.38a.61.61,0,0,0-.22,0c-.07,0,0,.13,0,.24v1.26c0,.11,0,.27,0,.3a.81.81,0,0,0,.25,0h.8c.11,0,.11,0,.11.41s0,.42-.1.42H96c-.14,0-.28,0-.34,0S95.64,99.88,95.64,99.78Z"/><path class="cls-34" d="M100.68,95.41c0-.12-.1-.36-.32-.36s-.32.27-.32.49v3.18c0,.24.06.48.32.48a.31.31,0,0,0,.32-.34v-.44c0-.11.07-.1.45-.1s.43,0,.43.16v.43a1.1,1.1,0,0,1-1.2,1.19,1.16,1.16,0,0,1-1.22-1.19V95.38a1.17,1.17,0,0,1,1.22-1.2,1.14,1.14,0,0,1,1.2,1.2v.45c0,.09-.07.11-.46.11s-.42,0-.42-.09Z"/><path class="cls-34" d="M105.49,98.91a1.13,1.13,0,0,1-1.24,1.19A1.16,1.16,0,0,1,103,98.92V94.33c0-.14.06-.15.47-.15s.43,0,.43.15v4.4c0,.23,0,.47.32.47s.32-.23.32-.47V94.32c0-.12.05-.14.43-.14s.49,0,.49.13Z"/><path class="cls-34" d="M107.29,100.1c-.13,0-.43,0-.42-.08.32-2.2.54-3.68.81-5.72,0-.12.26-.12.44-.12s.44,0,.46.15c.33,2.16.51,3.48.85,5.68,0,.1-.23.09-.46.09s-.41,0-.42-.1c-.07-.48-.11-.8-.17-1.26,0-.09-.11-.07-.25-.07s-.24,0-.25.07c0,.47-.09.78-.13,1.27C107.74,100.11,107.56,100.1,107.29,100.1Zm.83-2.06c.11,0,.2,0,.19-.06,0-.63-.07-1-.11-1.65,0,0,0-.23-.08-.23s-.06.21-.06.25C108,97,108,97.43,108,98,108,98,108,98,108.12,98Z"/><path class="cls-34" d="M113,99.73a1.36,1.36,0,0,1-1,.37h-.87c-.11,0-.18,0-.22-.06a.38.38,0,0,1,0-.2V94.45a.45.45,0,0,1,0-.22c.06,0,.11,0,.22,0H112a1.46,1.46,0,0,1,1,.35,1.23,1.23,0,0,1,.35.93v3.35A1.24,1.24,0,0,1,113,99.73Zm-.66-4.56a.36.36,0,0,0-.28-.1c-.14,0-.2,0-.23,0s0,.06,0,.11V99c0,.08,0,.14,0,.17s.12,0,.19,0a.39.39,0,0,0,.32-.15.62.62,0,0,0,.1-.42v-3A.73.73,0,0,0,112.36,95.17Z"/><path class="cls-34" d="M116.16,100.1a1.16,1.16,0,0,1-1.23-1.22V95.39a1.17,1.17,0,0,1,1.23-1.21,1.15,1.15,0,0,1,1.23,1.21v3.49A1.13,1.13,0,0,1,116.16,100.1Zm0-5c-.25,0-.32.28-.32.51V98.7c0,.23,0,.5.32.5s.32-.27.32-.5V95.56C116.48,95.33,116.4,95.05,116.16,95.05Z"/><path class="cls-34" d="M121,100.1c-.4,0-.44,0-.44-.15V98c0-.29-.1-.53-.31-.53s-.33,0-.33.11v2.35c0,.16-.06.16-.49.16s-.41,0-.41-.19V94.45a.65.65,0,0,1,0-.22c0-.06.11,0,.22,0h.84a1.46,1.46,0,0,1,1,.35,1.25,1.25,0,0,1,.34.93v.72a.9.9,0,0,1-.14.56c-.15.22-.41.27-.41.3s.27,0,.43.26a.81.81,0,0,1,.15.53V100C121.51,100.1,121.45,100.1,121,100.1Zm-.58-4.93c-.06-.06-.11-.1-.3-.1s-.14,0-.17,0a.23.23,0,0,0,0,.11v1.26c0,.08,0,.14,0,.17s.09,0,.16,0a.43.43,0,0,0,.3-.13.45.45,0,0,0,.12-.33v-.57A.68.68,0,0,0,120.46,95.17Z"/><path class="cls-34" d="M115.54,69.46a2,2,0,0,1,.35-1.06,2,2,0,0,1,.5-.4.68.68,0,0,0,0,.29s0-.31.18-.4l.24-.09v.11s0,.09,0,.15-.17.17-.17.17a.7.7,0,0,1,.14,0,.51.51,0,0,1-.08.25c-.06.1-.31.17-.31.17a1.13,1.13,0,0,1,.25,0,.67.67,0,0,1-.06.12l-.1.15A1.89,1.89,0,0,1,115.54,69.46Z"/></g></g></svg>